<?xml version="1.0" encoding="UTF-8" standalone="no"?>
<!DOCTYPE svg PUBLIC "-//W3C//DTD SVG 1.1//EN"
 "http://www.w3.org/Graphics/SVG/1.1/DTD/svg11.dtd">
<!-- Generated by graphviz version 2.43.0 (0)
 -->
<!-- Title: Headers/ast.hpp Pages: 1 -->
<svg width="373pt" height="252pt"
 viewBox="0.00 0.00 373.39 252.00" xmlns="http://www.w3.org/2000/svg" xmlns:xlink="http://www.w3.org/1999/xlink">
<g id="graph0" class="graph" transform="scale(1 1) rotate(0) translate(4 248)">
<title>Headers/ast.hpp</title>
<polygon fill="white" stroke="transparent" points="-4,4 -4,-248 369.39,-248 369.39,4 -4,4"/>
<!-- Node1 -->
<g id="node1" class="node">
<title>Node1</title>
<g id="a_node1"><a xlink:title="Описание класса абстрактного синтаксического дерева">
<polygon fill="#bfbfbf" stroke="black" points="154.39,-224.5 154.39,-243.5 243.39,-243.5 243.39,-224.5 154.39,-224.5"/>
<text text-anchor="middle" x="198.89" y="-231.5" font-family="Helvetica,sans-Serif" font-size="10.00">Headers/ast.hpp</text>
</a>
</g>
</g>
<!-- Node2 -->
<g id="node2" class="node">
<title>Node2</title>
<g id="a_node2"><a xlink:href="binary_8hpp.html" target="_top" xlink:title="Описание класса бинарного кода">
<polygon fill="white" stroke="black" points="128.89,-112.5 128.89,-131.5 230.89,-131.5 230.89,-112.5 128.89,-112.5"/>
<text text-anchor="middle" x="179.89" y="-119.5" font-family="Helvetica,sans-Serif" font-size="10.00">Headers/binary.hpp</text>
</a>
</g>
</g>
<!-- Node1&#45;&gt;Node2 -->
<g id="edge1" class="edge">
<title>Node1&#45;&gt;Node2</title>
<path fill="none" stroke="midnightblue" d="M195.67,-214.35C191.5,-190.25 184.43,-149.31 181.37,-131.59"/>
<polygon fill="midnightblue" stroke="midnightblue" points="192.25,-215.11 197.4,-224.37 199.14,-213.92 192.25,-215.11"/>
</g>
<!-- Node7 -->
<g id="node7" class="node">
<title>Node7</title>
<g id="a_node7"><a xlink:href="source_8hpp.html" target="_top" xlink:title="Описание класса исходного кода">
<polygon fill="white" stroke="black" points="28.39,-168.5 28.39,-187.5 133.39,-187.5 133.39,-168.5 28.39,-168.5"/>
<text text-anchor="middle" x="80.89" y="-175.5" font-family="Helvetica,sans-Serif" font-size="10.00">Headers/source.hpp</text>
</a>
</g>
</g>
<!-- Node1&#45;&gt;Node7 -->
<g id="edge6" class="edge">
<title>Node1&#45;&gt;Node7</title>
<path fill="none" stroke="midnightblue" d="M170.99,-220.23C148.92,-210.13 118.71,-196.31 99.5,-187.52"/>
<polygon fill="midnightblue" stroke="midnightblue" points="169.64,-223.46 180.19,-224.44 172.55,-217.1 169.64,-223.46"/>
</g>
<!-- Node9 -->
<g id="node9" class="node">
<title>Node9</title>
<g id="a_node9"><a xlink:href="ast_8cpp.html" target="_top" xlink:title="Исполняемый код класса AbstractSyntaxTree.">
<polygon fill="white" stroke="black" points="248.89,-112.5 248.89,-131.5 330.89,-131.5 330.89,-112.5 248.89,-112.5"/>
<text text-anchor="middle" x="289.89" y="-119.5" font-family="Helvetica,sans-Serif" font-size="10.00">Source/ast.cpp</text>
</a>
</g>
</g>
<!-- Node1&#45;&gt;Node9 -->
<g id="edge10" class="edge">
<title>Node1&#45;&gt;Node9</title>
<path fill="none" stroke="midnightblue" d="M207.25,-215.14C214.13,-201.45 224.71,-182.52 236.89,-168 248.99,-153.57 266.02,-140.02 277.48,-131.63"/>
<polygon fill="midnightblue" stroke="midnightblue" points="203.96,-213.89 202.75,-224.42 210.26,-216.95 203.96,-213.89"/>
</g>
<!-- Node10 -->
<g id="node10" class="node">
<title>Node10</title>
<g id="a_node10"><a xlink:href="jaul__syntax_8hpp.html" target="_top" xlink:title="Инструкции для компиляции высокоуровневых операций в ассемблерный код">
<polygon fill="white" stroke="black" points="246.39,-168.5 246.39,-187.5 365.39,-187.5 365.39,-168.5 246.39,-168.5"/>
<text text-anchor="middle" x="305.89" y="-175.5" font-family="Helvetica,sans-Serif" font-size="10.00">Syntax/jaul_syntax.hpp</text>
</a>
</g>
</g>
<!-- Node1&#45;&gt;Node10 -->
<g id="edge11" class="edge">
<title>Node1&#45;&gt;Node10</title>
<path fill="none" stroke="midnightblue" d="M225.19,-219.73C245,-209.73 271.6,-196.31 288.74,-187.65"/>
<polygon fill="midnightblue" stroke="midnightblue" points="223.43,-216.69 216.08,-224.32 226.58,-222.94 223.43,-216.69"/>
</g>
<!-- Node3 -->
<g id="node3" class="node">
<title>Node3</title>
<g id="a_node3"><a xlink:href="compiler_8hpp.html" target="_top" xlink:title="Заголовочный файл с описанием класса компилятора">
<polygon fill="white" stroke="black" points="44.39,-56.5 44.39,-75.5 157.39,-75.5 157.39,-56.5 44.39,-56.5"/>
<text text-anchor="middle" x="100.89" y="-63.5" font-family="Helvetica,sans-Serif" font-size="10.00">Headers/compiler.hpp</text>
</a>
</g>
</g>
<!-- Node2&#45;&gt;Node3 -->
<g id="edge2" class="edge">
<title>Node2&#45;&gt;Node3</title>
<path fill="none" stroke="midnightblue" d="M158.85,-106.62C144.42,-96.76 125.75,-83.99 113.55,-75.65"/>
<polygon fill="midnightblue" stroke="midnightblue" points="156.96,-109.57 167.2,-112.32 160.92,-103.79 156.96,-109.57"/>
</g>
<!-- Node6 -->
<g id="node6" class="node">
<title>Node6</title>
<g id="a_node6"><a xlink:href="binary_8cpp.html" target="_top" xlink:title="Исполняемый код класса Binary и вложенных классов">
<polygon fill="white" stroke="black" points="211.39,-56.5 211.39,-75.5 306.39,-75.5 306.39,-56.5 211.39,-56.5"/>
<text text-anchor="middle" x="258.89" y="-63.5" font-family="Helvetica,sans-Serif" font-size="10.00">Source/binary.cpp</text>
</a>
</g>
</g>
<!-- Node2&#45;&gt;Node6 -->
<g id="edge5" class="edge">
<title>Node2&#45;&gt;Node6</title>
<path fill="none" stroke="midnightblue" d="M200.92,-106.62C215.35,-96.76 234.03,-83.99 246.23,-75.65"/>
<polygon fill="midnightblue" stroke="midnightblue" points="198.86,-103.79 192.58,-112.32 202.81,-109.57 198.86,-103.79"/>
</g>
<!-- Node4 -->
<g id="node4" class="node">
<title>Node4</title>
<g id="a_node4"><a xlink:href="jc_8cpp.html" target="_top" xlink:title="Основной файл компилятора">
<polygon fill="white" stroke="black" points="33.39,-0.5 33.39,-19.5 76.39,-19.5 76.39,-0.5 33.39,-0.5"/>
<text text-anchor="middle" x="54.89" y="-7.5" font-family="Helvetica,sans-Serif" font-size="10.00">jc.cpp</text>
</a>
</g>
</g>
<!-- Node3&#45;&gt;Node4 -->
<g id="edge3" class="edge">
<title>Node3&#45;&gt;Node4</title>
<path fill="none" stroke="midnightblue" d="M86.77,-48.43C78.71,-38.97 68.93,-27.48 62.34,-19.75"/>
<polygon fill="midnightblue" stroke="midnightblue" points="84.14,-50.74 93.29,-56.08 89.47,-46.2 84.14,-50.74"/>
</g>
<!-- Node5 -->
<g id="node5" class="node">
<title>Node5</title>
<g id="a_node5"><a xlink:href="compiler_8cpp.html" target="_top" xlink:title="Файл с исполняемым кодом класса Compiler.">
<polygon fill="white" stroke="black" points="94.89,-0.5 94.89,-19.5 200.89,-19.5 200.89,-0.5 94.89,-0.5"/>
<text text-anchor="middle" x="147.89" y="-7.5" font-family="Helvetica,sans-Serif" font-size="10.00">Source/compiler.cpp</text>
</a>
</g>
</g>
<!-- Node3&#45;&gt;Node5 -->
<g id="edge4" class="edge">
<title>Node3&#45;&gt;Node5</title>
<path fill="none" stroke="midnightblue" d="M115.31,-48.43C123.55,-38.97 133.54,-27.48 140.27,-19.75"/>
<polygon fill="midnightblue" stroke="midnightblue" points="112.57,-46.24 108.65,-56.08 117.85,-50.84 112.57,-46.24"/>
</g>
<!-- Node7&#45;&gt;Node2 -->
<g id="edge7" class="edge">
<title>Node7&#45;&gt;Node2</title>
<path fill="none" stroke="midnightblue" d="M105.73,-163.45C124,-153.48 148.3,-140.23 164.02,-131.65"/>
<polygon fill="midnightblue" stroke="midnightblue" points="103.9,-160.46 96.79,-168.32 107.25,-166.61 103.9,-160.46"/>
</g>
<!-- Node7&#45;&gt;Node3 -->
<g id="edge8" class="edge">
<title>Node7&#45;&gt;Node3</title>
<path fill="none" stroke="midnightblue" d="M45.69,-164.5C19.17,-152.98 -10.37,-134.33 3.89,-112 15.98,-93.07 38.31,-81.98 58.5,-75.55"/>
<polygon fill="midnightblue" stroke="midnightblue" points="44.66,-167.85 55.24,-168.41 47.31,-161.38 44.66,-167.85"/>
</g>
<!-- Node8 -->
<g id="node8" class="node">
<title>Node8</title>
<g id="a_node8"><a xlink:href="source_8cpp.html" target="_top" xlink:title="Исполняемый код класса Source.">
<polygon fill="white" stroke="black" points="12.89,-112.5 12.89,-131.5 110.89,-131.5 110.89,-112.5 12.89,-112.5"/>
<text text-anchor="middle" x="61.89" y="-119.5" font-family="Helvetica,sans-Serif" font-size="10.00">Source/source.cpp</text>
</a>
</g>
</g>
<!-- Node7&#45;&gt;Node8 -->
<g id="edge9" class="edge">
<title>Node7&#45;&gt;Node8</title>
<path fill="none" stroke="midnightblue" d="M74.34,-158.4C71.16,-149.36 67.5,-138.94 64.97,-131.75"/>
<polygon fill="midnightblue" stroke="midnightblue" points="71.13,-159.81 77.75,-168.08 77.73,-157.49 71.13,-159.81"/>
</g>
<!-- Node10&#45;&gt;Node6 -->
<g id="edge13" class="edge">
<title>Node10&#45;&gt;Node6</title>
<path fill="none" stroke="midnightblue" d="M323.41,-161.39C336.15,-148.07 349.61,-128.52 339.89,-112 329.12,-93.7 307.92,-82.31 289.91,-75.56"/>
<polygon fill="midnightblue" stroke="midnightblue" points="320.9,-158.96 316.17,-168.44 325.78,-163.97 320.9,-158.96"/>
</g>
<!-- Node10&#45;&gt;Node9 -->
<g id="edge12" class="edge">
<title>Node10&#45;&gt;Node9</title>
<path fill="none" stroke="midnightblue" d="M300.38,-158.4C297.7,-149.36 294.61,-138.94 292.48,-131.75"/>
<polygon fill="midnightblue" stroke="midnightblue" points="297.05,-159.49 303.25,-168.08 303.76,-157.5 297.05,-159.49"/>
</g>
</g>
</svg>
