<?xml version="1.0" encoding="UTF-8" standalone="no"?>
<!DOCTYPE svg PUBLIC "-//W3C//DTD SVG 1.1//EN"
 "http://www.w3.org/Graphics/SVG/1.1/DTD/svg11.dtd">
<!-- Generated by graphviz version 2.43.0 (0)
 -->
<!-- Title: Source/ast.cpp Pages: 1 -->
<svg width="274pt" height="196pt"
 viewBox="0.00 0.00 274.00 196.00" xmlns="http://www.w3.org/2000/svg" xmlns:xlink="http://www.w3.org/1999/xlink">
<g id="graph0" class="graph" transform="scale(1 1) rotate(0) translate(4 192)">
<title>Source/ast.cpp</title>
<polygon fill="white" stroke="transparent" points="-4,4 -4,-192 270,-192 270,4 -4,4"/>
<!-- Node1 -->
<g id="node1" class="node">
<title>Node1</title>
<g id="a_node1"><a xlink:title="Исполняемый код класса AbstractSyntaxTree.">
<polygon fill="#bfbfbf" stroke="black" points="88,-168.5 88,-187.5 170,-187.5 170,-168.5 88,-168.5"/>
<text text-anchor="middle" x="129" y="-175.5" font-family="Helvetica,sans-Serif" font-size="10.00">Source/ast.cpp</text>
</a>
</g>
</g>
<!-- Node2 -->
<g id="node2" class="node">
<title>Node2</title>
<g id="a_node2"><a xlink:href="ast_8hpp.html" target="_top" xlink:title="Описание класса абстрактного синтаксического дерева">
<polygon fill="white" stroke="black" points="80,-56.5 80,-75.5 178,-75.5 178,-56.5 80,-56.5"/>
<text text-anchor="middle" x="129" y="-63.5" font-family="Helvetica,sans-Serif" font-size="10.00">../Headers/ast.hpp</text>
</a>
</g>
</g>
<!-- Node1&#45;&gt;Node2 -->
<g id="edge1" class="edge">
<title>Node1&#45;&gt;Node2</title>
<path fill="none" stroke="midnightblue" d="M121.85,-168.36C115.23,-159.76 105.84,-145.87 102,-132 97.33,-115.13 106.34,-96.79 115.18,-83.91"/>
<polygon fill="midnightblue" stroke="midnightblue" points="118.21,-85.69 121.39,-75.59 112.6,-81.51 118.21,-85.69"/>
</g>
<!-- Node7 -->
<g id="node7" class="node">
<title>Node7</title>
<g id="a_node7"><a xlink:href="jaul__syntax_8hpp.html" target="_top" xlink:title="Инструкции для компиляции высокоуровневых операций в ассемблерный код">
<polygon fill="white" stroke="black" points="111,-112.5 111,-131.5 239,-131.5 239,-112.5 111,-112.5"/>
<text text-anchor="middle" x="175" y="-119.5" font-family="Helvetica,sans-Serif" font-size="10.00">../Syntax/jaul_syntax.hpp</text>
</a>
</g>
</g>
<!-- Node1&#45;&gt;Node7 -->
<g id="edge6" class="edge">
<title>Node1&#45;&gt;Node7</title>
<path fill="none" stroke="midnightblue" d="M136.6,-168.08C143.23,-160.3 153.02,-148.8 161.06,-139.37"/>
<polygon fill="midnightblue" stroke="midnightblue" points="163.73,-141.63 167.55,-131.75 158.4,-137.09 163.73,-141.63"/>
</g>
<!-- Node3 -->
<g id="node3" class="node">
<title>Node3</title>
<g id="a_node3"><a xlink:title=" ">
<polygon fill="white" stroke="#bfbfbf" points="0,-0.5 0,-19.5 50,-19.5 50,-0.5 0,-0.5"/>
<text text-anchor="middle" x="25" y="-7.5" font-family="Helvetica,sans-Serif" font-size="10.00">fstream</text>
</a>
</g>
</g>
<!-- Node2&#45;&gt;Node3 -->
<g id="edge2" class="edge">
<title>Node2&#45;&gt;Node3</title>
<path fill="none" stroke="midnightblue" d="M112.29,-56.32C95.69,-47.7 70,-34.36 50.78,-24.39"/>
<polygon fill="midnightblue" stroke="midnightblue" points="52.16,-21.16 41.67,-19.65 48.93,-27.37 52.16,-21.16"/>
</g>
<!-- Node4 -->
<g id="node4" class="node">
<title>Node4</title>
<g id="a_node4"><a xlink:title=" ">
<polygon fill="white" stroke="#bfbfbf" points="68,-0.5 68,-19.5 122,-19.5 122,-0.5 68,-0.5"/>
<text text-anchor="middle" x="95" y="-7.5" font-family="Helvetica,sans-Serif" font-size="10.00">iostream</text>
</a>
</g>
</g>
<!-- Node2&#45;&gt;Node4 -->
<g id="edge3" class="edge">
<title>Node2&#45;&gt;Node4</title>
<path fill="none" stroke="midnightblue" d="M123.39,-56.08C118.63,-48.53 111.68,-37.49 105.85,-28.23"/>
<polygon fill="midnightblue" stroke="midnightblue" points="108.8,-26.35 100.51,-19.75 102.88,-30.08 108.8,-26.35"/>
</g>
<!-- Node5 -->
<g id="node5" class="node">
<title>Node5</title>
<g id="a_node5"><a xlink:title=" ">
<polygon fill="white" stroke="#bfbfbf" points="140,-0.5 140,-19.5 186,-19.5 186,-0.5 140,-0.5"/>
<text text-anchor="middle" x="163" y="-7.5" font-family="Helvetica,sans-Serif" font-size="10.00">cstring</text>
</a>
</g>
</g>
<!-- Node2&#45;&gt;Node5 -->
<g id="edge4" class="edge">
<title>Node2&#45;&gt;Node5</title>
<path fill="none" stroke="midnightblue" d="M134.61,-56.08C139.37,-48.53 146.32,-37.49 152.15,-28.23"/>
<polygon fill="midnightblue" stroke="midnightblue" points="155.12,-30.08 157.49,-19.75 149.2,-26.35 155.12,-30.08"/>
</g>
<!-- Node6 -->
<g id="node6" class="node">
<title>Node6</title>
<g id="a_node6"><a xlink:href="debug_8hpp_source.html" target="_top" xlink:title=" ">
<polygon fill="white" stroke="black" points="204,-0.5 204,-19.5 266,-19.5 266,-0.5 204,-0.5"/>
<text text-anchor="middle" x="235" y="-7.5" font-family="Helvetica,sans-Serif" font-size="10.00">debug.hpp</text>
</a>
</g>
</g>
<!-- Node2&#45;&gt;Node6 -->
<g id="edge5" class="edge">
<title>Node2&#45;&gt;Node6</title>
<path fill="none" stroke="midnightblue" d="M146.03,-56.32C163.03,-47.66 189.38,-34.24 208.99,-24.25"/>
<polygon fill="midnightblue" stroke="midnightblue" points="210.69,-27.31 218.01,-19.65 207.51,-21.08 210.69,-27.31"/>
</g>
<!-- Node7&#45;&gt;Node2 -->
<g id="edge7" class="edge">
<title>Node7&#45;&gt;Node2</title>
<path fill="none" stroke="midnightblue" d="M167.4,-112.08C160.77,-104.3 150.98,-92.8 142.94,-83.37"/>
<polygon fill="midnightblue" stroke="midnightblue" points="145.6,-81.09 136.45,-75.75 140.27,-85.63 145.6,-81.09"/>
</g>
</g>
</svg>
