<?xml version="1.0" encoding="UTF-8" standalone="no"?>
<!DOCTYPE svg PUBLIC "-//W3C//DTD SVG 1.1//EN"
 "http://www.w3.org/Graphics/SVG/1.1/DTD/svg11.dtd">
<!-- Generated by graphviz version 2.43.0 (0)
 -->
<!-- Title: Headers/binary.hpp Pages: 1 -->
<svg width="245pt" height="140pt"
 viewBox="0.00 0.00 245.00 140.00" xmlns="http://www.w3.org/2000/svg" xmlns:xlink="http://www.w3.org/1999/xlink">
<g id="graph0" class="graph" transform="scale(1 1) rotate(0) translate(4 136)">
<title>Headers/binary.hpp</title>
<polygon fill="white" stroke="transparent" points="-4,4 -4,-136 241,-136 241,4 -4,4"/>
<!-- Node1 -->
<g id="node1" class="node">
<title>Node1</title>
<g id="a_node1"><a xlink:title="Описание класса бинарного кода">
<polygon fill="#bfbfbf" stroke="black" points="77.5,-112.5 77.5,-131.5 179.5,-131.5 179.5,-112.5 77.5,-112.5"/>
<text text-anchor="middle" x="128.5" y="-119.5" font-family="Helvetica,sans-Serif" font-size="10.00">Headers/binary.hpp</text>
</a>
</g>
</g>
<!-- Node2 -->
<g id="node2" class="node">
<title>Node2</title>
<g id="a_node2"><a xlink:href="compiler_8hpp.html" target="_top" xlink:title="Заголовочный файл с описанием класса компилятора">
<polygon fill="white" stroke="black" points="11,-56.5 11,-75.5 124,-75.5 124,-56.5 11,-56.5"/>
<text text-anchor="middle" x="67.5" y="-63.5" font-family="Helvetica,sans-Serif" font-size="10.00">Headers/compiler.hpp</text>
</a>
</g>
</g>
<!-- Node1&#45;&gt;Node2 -->
<g id="edge1" class="edge">
<title>Node1&#45;&gt;Node2</title>
<path fill="none" stroke="midnightblue" d="M111.03,-105.54C100.16,-95.91 86.56,-83.87 77.48,-75.83"/>
<polygon fill="midnightblue" stroke="midnightblue" points="108.89,-108.32 118.7,-112.32 113.53,-103.07 108.89,-108.32"/>
</g>
<!-- Node5 -->
<g id="node5" class="node">
<title>Node5</title>
<g id="a_node5"><a xlink:href="binary_8cpp.html" target="_top" xlink:title="Исполняемый код класса Binary и вложенных классов">
<polygon fill="white" stroke="black" points="142,-56.5 142,-75.5 237,-75.5 237,-56.5 142,-56.5"/>
<text text-anchor="middle" x="189.5" y="-63.5" font-family="Helvetica,sans-Serif" font-size="10.00">Source/binary.cpp</text>
</a>
</g>
</g>
<!-- Node1&#45;&gt;Node5 -->
<g id="edge4" class="edge">
<title>Node1&#45;&gt;Node5</title>
<path fill="none" stroke="midnightblue" d="M145.97,-105.54C156.84,-95.91 170.44,-83.87 179.52,-75.83"/>
<polygon fill="midnightblue" stroke="midnightblue" points="143.47,-103.07 138.3,-112.32 148.11,-108.32 143.47,-103.07"/>
</g>
<!-- Node3 -->
<g id="node3" class="node">
<title>Node3</title>
<g id="a_node3"><a xlink:href="jc_8cpp.html" target="_top" xlink:title="Основной файл компилятора">
<polygon fill="white" stroke="black" points="0,-0.5 0,-19.5 43,-19.5 43,-0.5 0,-0.5"/>
<text text-anchor="middle" x="21.5" y="-7.5" font-family="Helvetica,sans-Serif" font-size="10.00">jc.cpp</text>
</a>
</g>
</g>
<!-- Node2&#45;&gt;Node3 -->
<g id="edge2" class="edge">
<title>Node2&#45;&gt;Node3</title>
<path fill="none" stroke="midnightblue" d="M53.39,-48.43C45.32,-38.97 35.54,-27.48 28.95,-19.75"/>
<polygon fill="midnightblue" stroke="midnightblue" points="50.75,-50.74 59.9,-56.08 56.08,-46.2 50.75,-50.74"/>
</g>
<!-- Node4 -->
<g id="node4" class="node">
<title>Node4</title>
<g id="a_node4"><a xlink:href="compiler_8cpp.html" target="_top" xlink:title="Файл с исполняемым кодом класса Compiler.">
<polygon fill="white" stroke="black" points="61.5,-0.5 61.5,-19.5 167.5,-19.5 167.5,-0.5 61.5,-0.5"/>
<text text-anchor="middle" x="114.5" y="-7.5" font-family="Helvetica,sans-Serif" font-size="10.00">Source/compiler.cpp</text>
</a>
</g>
</g>
<!-- Node2&#45;&gt;Node4 -->
<g id="edge3" class="edge">
<title>Node2&#45;&gt;Node4</title>
<path fill="none" stroke="midnightblue" d="M81.92,-48.43C90.16,-38.97 100.15,-27.48 106.88,-19.75"/>
<polygon fill="midnightblue" stroke="midnightblue" points="79.19,-46.24 75.26,-56.08 84.47,-50.84 79.19,-46.24"/>
</g>
</g>
</svg>
