<?xml version="1.0" encoding="UTF-8" standalone="no"?>
<!DOCTYPE svg PUBLIC "-//W3C//DTD SVG 1.1//EN"
 "http://www.w3.org/Graphics/SVG/1.1/DTD/svg11.dtd">
<!-- Generated by graphviz version 2.43.0 (0)
 -->
<!-- Title: Headers/binary.hpp Pages: 1 -->
<svg width="274pt" height="196pt"
 viewBox="0.00 0.00 274.00 196.00" xmlns="http://www.w3.org/2000/svg" xmlns:xlink="http://www.w3.org/1999/xlink">
<g id="graph0" class="graph" transform="scale(1 1) rotate(0) translate(4 192)">
<title>Headers/binary.hpp</title>
<polygon fill="white" stroke="transparent" points="-4,4 -4,-192 270,-192 270,4 -4,4"/>
<!-- Node1 -->
<g id="node1" class="node">
<title>Node1</title>
<g id="a_node1"><a xlink:title="Описание класса бинарного кода">
<polygon fill="#bfbfbf" stroke="black" points="32,-168.5 32,-187.5 134,-187.5 134,-168.5 32,-168.5"/>
<text text-anchor="middle" x="83" y="-175.5" font-family="Helvetica,sans-Serif" font-size="10.00">Headers/binary.hpp</text>
</a>
</g>
</g>
<!-- Node2 -->
<g id="node2" class="node">
<title>Node2</title>
<g id="a_node2"><a xlink:title=" ">
<polygon fill="white" stroke="#bfbfbf" points="0,-0.5 0,-19.5 46,-19.5 46,-0.5 0,-0.5"/>
<text text-anchor="middle" x="23" y="-7.5" font-family="Helvetica,sans-Serif" font-size="10.00">cstring</text>
</a>
</g>
</g>
<!-- Node1&#45;&gt;Node2 -->
<g id="edge1" class="edge">
<title>Node1&#45;&gt;Node2</title>
<path fill="none" stroke="midnightblue" d="M79.77,-168.08C70.29,-141.83 42.35,-64.55 29.55,-29.12"/>
<polygon fill="midnightblue" stroke="midnightblue" points="32.79,-27.78 26.1,-19.57 26.2,-30.16 32.79,-27.78"/>
</g>
<!-- Node3 -->
<g id="node3" class="node">
<title>Node3</title>
<g id="a_node3"><a xlink:href="ast_8hpp.html" target="_top" xlink:title="Описание класса абстрактного синтаксического дерева">
<polygon fill="white" stroke="black" points="90,-56.5 90,-75.5 138,-75.5 138,-56.5 90,-56.5"/>
<text text-anchor="middle" x="114" y="-63.5" font-family="Helvetica,sans-Serif" font-size="10.00">ast.hpp</text>
</a>
</g>
</g>
<!-- Node1&#45;&gt;Node3 -->
<g id="edge2" class="edge">
<title>Node1&#45;&gt;Node3</title>
<path fill="none" stroke="midnightblue" d="M85.43,-168.37C90.46,-150.54 102.08,-109.3 108.85,-85.27"/>
<polygon fill="midnightblue" stroke="midnightblue" points="112.23,-86.17 111.58,-75.59 105.5,-84.27 112.23,-86.17"/>
</g>
<!-- Node7 -->
<g id="node7" class="node">
<title>Node7</title>
<g id="a_node7"><a xlink:href="source_8hpp.html" target="_top" xlink:title="Описание класса исходного кода">
<polygon fill="white" stroke="black" points="111.5,-112.5 111.5,-131.5 176.5,-131.5 176.5,-112.5 111.5,-112.5"/>
<text text-anchor="middle" x="144" y="-119.5" font-family="Helvetica,sans-Serif" font-size="10.00">source.hpp</text>
</a>
</g>
</g>
<!-- Node1&#45;&gt;Node7 -->
<g id="edge7" class="edge">
<title>Node1&#45;&gt;Node7</title>
<path fill="none" stroke="midnightblue" d="M92.8,-168.32C101.82,-160.34 115.41,-148.31 126.32,-138.65"/>
<polygon fill="midnightblue" stroke="midnightblue" points="128.85,-141.08 134.02,-131.83 124.21,-135.84 128.85,-141.08"/>
</g>
<!-- Node3&#45;&gt;Node2 -->
<g id="edge5" class="edge">
<title>Node3&#45;&gt;Node2</title>
<path fill="none" stroke="midnightblue" d="M99.38,-56.32C85.05,-47.82 62.99,-34.73 46.25,-24.8"/>
<polygon fill="midnightblue" stroke="midnightblue" points="47.97,-21.75 37.58,-19.65 44.4,-27.77 47.97,-21.75"/>
</g>
<!-- Node4 -->
<g id="node4" class="node">
<title>Node4</title>
<g id="a_node4"><a xlink:title=" ">
<polygon fill="white" stroke="#bfbfbf" points="216,-0.5 216,-19.5 266,-19.5 266,-0.5 216,-0.5"/>
<text text-anchor="middle" x="241" y="-7.5" font-family="Helvetica,sans-Serif" font-size="10.00">fstream</text>
</a>
</g>
</g>
<!-- Node3&#45;&gt;Node4 -->
<g id="edge3" class="edge">
<title>Node3&#45;&gt;Node4</title>
<path fill="none" stroke="midnightblue" d="M134.12,-56.44C155.02,-47.56 187.93,-33.56 211.72,-23.45"/>
<polygon fill="midnightblue" stroke="midnightblue" points="213.14,-26.65 220.97,-19.52 210.4,-20.21 213.14,-26.65"/>
</g>
<!-- Node5 -->
<g id="node5" class="node">
<title>Node5</title>
<g id="a_node5"><a xlink:title=" ">
<polygon fill="white" stroke="#bfbfbf" points="64,-0.5 64,-19.5 118,-19.5 118,-0.5 64,-0.5"/>
<text text-anchor="middle" x="91" y="-7.5" font-family="Helvetica,sans-Serif" font-size="10.00">iostream</text>
</a>
</g>
</g>
<!-- Node3&#45;&gt;Node5 -->
<g id="edge4" class="edge">
<title>Node3&#45;&gt;Node5</title>
<path fill="none" stroke="midnightblue" d="M110.2,-56.08C107.09,-48.77 102.58,-38.18 98.71,-29.1"/>
<polygon fill="midnightblue" stroke="midnightblue" points="101.87,-27.58 94.73,-19.75 95.43,-30.32 101.87,-27.58"/>
</g>
<!-- Node6 -->
<g id="node6" class="node">
<title>Node6</title>
<g id="a_node6"><a xlink:href="debug_8hpp_source.html" target="_top" xlink:title=" ">
<polygon fill="white" stroke="black" points="136,-0.5 136,-19.5 198,-19.5 198,-0.5 136,-0.5"/>
<text text-anchor="middle" x="167" y="-7.5" font-family="Helvetica,sans-Serif" font-size="10.00">debug.hpp</text>
</a>
</g>
</g>
<!-- Node3&#45;&gt;Node6 -->
<g id="edge6" class="edge">
<title>Node3&#45;&gt;Node6</title>
<path fill="none" stroke="midnightblue" d="M122.75,-56.08C130.47,-48.22 141.9,-36.57 151.22,-27.08"/>
<polygon fill="midnightblue" stroke="midnightblue" points="153.9,-29.34 158.41,-19.75 148.91,-24.44 153.9,-29.34"/>
</g>
<!-- Node7&#45;&gt;Node2 -->
<g id="edge8" class="edge">
<title>Node7&#45;&gt;Node2</title>
<path fill="none" stroke="midnightblue" d="M130.07,-112.34C116.84,-103.82 96.71,-90.09 81,-76 64.19,-60.92 47.26,-41.32 36.07,-27.6"/>
<polygon fill="midnightblue" stroke="midnightblue" points="38.59,-25.15 29.6,-19.55 33.13,-29.54 38.59,-25.15"/>
</g>
<!-- Node7&#45;&gt;Node3 -->
<g id="edge10" class="edge">
<title>Node7&#45;&gt;Node3</title>
<path fill="none" stroke="midnightblue" d="M139.05,-112.08C134.9,-104.61 128.85,-93.72 123.73,-84.52"/>
<polygon fill="midnightblue" stroke="midnightblue" points="126.78,-82.79 118.86,-75.75 120.66,-86.19 126.78,-82.79"/>
</g>
<!-- Node7&#45;&gt;Node4 -->
<g id="edge9" class="edge">
<title>Node7&#45;&gt;Node4</title>
<path fill="none" stroke="midnightblue" d="M151.61,-112.37C167.76,-94.05 205.68,-51.05 226.57,-27.36"/>
<polygon fill="midnightblue" stroke="midnightblue" points="229.44,-29.41 233.42,-19.59 224.18,-24.78 229.44,-29.41"/>
</g>
<!-- Node7&#45;&gt;Node6 -->
<g id="edge11" class="edge">
<title>Node7&#45;&gt;Node6</title>
<path fill="none" stroke="midnightblue" d="M145.8,-112.37C149.52,-94.62 158.08,-53.67 163.11,-29.6"/>
<polygon fill="midnightblue" stroke="midnightblue" points="166.58,-30.1 165.2,-19.59 159.73,-28.66 166.58,-30.1"/>
</g>
</g>
</svg>
