<?xml version="1.0" encoding="UTF-8" standalone="no"?>
<!DOCTYPE svg PUBLIC "-//W3C//DTD SVG 1.1//EN"
 "http://www.w3.org/Graphics/SVG/1.1/DTD/svg11.dtd">
<!-- Generated by graphviz version 2.43.0 (0)
 -->
<!-- Title: Source/binary.cpp Pages: 1 -->
<svg width="312pt" height="252pt"
 viewBox="0.00 0.00 312.00 252.00" xmlns="http://www.w3.org/2000/svg" xmlns:xlink="http://www.w3.org/1999/xlink">
<g id="graph0" class="graph" transform="scale(1 1) rotate(0) translate(4 248)">
<title>Source/binary.cpp</title>
<polygon fill="white" stroke="transparent" points="-4,4 -4,-248 308,-248 308,4 -4,4"/>
<!-- Node1 -->
<g id="node1" class="node">
<title>Node1</title>
<g id="a_node1"><a xlink:title="Исполняемый код класса Binary и вложенных классов">
<polygon fill="#bfbfbf" stroke="black" points="92.5,-224.5 92.5,-243.5 187.5,-243.5 187.5,-224.5 92.5,-224.5"/>
<text text-anchor="middle" x="140" y="-231.5" font-family="Helvetica,sans-Serif" font-size="10.00">Source/binary.cpp</text>
</a>
</g>
</g>
<!-- Node2 -->
<g id="node2" class="node">
<title>Node2</title>
<g id="a_node2"><a xlink:href="binary_8hpp.html" target="_top" xlink:title="Описание класса бинарного кода">
<polygon fill="white" stroke="black" points="130.5,-168.5 130.5,-187.5 241.5,-187.5 241.5,-168.5 130.5,-168.5"/>
<text text-anchor="middle" x="186" y="-175.5" font-family="Helvetica,sans-Serif" font-size="10.00">../Headers/binary.hpp</text>
</a>
</g>
</g>
<!-- Node1&#45;&gt;Node2 -->
<g id="edge1" class="edge">
<title>Node1&#45;&gt;Node2</title>
<path fill="none" stroke="midnightblue" d="M147.6,-224.08C154.23,-216.3 164.02,-204.8 172.06,-195.37"/>
<polygon fill="midnightblue" stroke="midnightblue" points="174.73,-197.63 178.55,-187.75 169.4,-193.09 174.73,-197.63"/>
</g>
<!-- Node9 -->
<g id="node9" class="node">
<title>Node9</title>
<g id="a_node9"><a xlink:href="jaul__syntax_8hpp.html" target="_top" xlink:title="Инструкции для компиляции высокоуровневых операций в ассемблерный код">
<polygon fill="white" stroke="black" points="0,-112.5 0,-131.5 128,-131.5 128,-112.5 0,-112.5"/>
<text text-anchor="middle" x="64" y="-119.5" font-family="Helvetica,sans-Serif" font-size="10.00">../Syntax/jaul_syntax.hpp</text>
</a>
</g>
</g>
<!-- Node1&#45;&gt;Node9 -->
<g id="edge13" class="edge">
<title>Node1&#45;&gt;Node9</title>
<path fill="none" stroke="midnightblue" d="M134.04,-224.37C121.49,-206.22 92.19,-163.8 75.74,-139.99"/>
<polygon fill="midnightblue" stroke="midnightblue" points="78.5,-137.83 69.94,-131.59 72.74,-141.81 78.5,-137.83"/>
</g>
<!-- Node3 -->
<g id="node3" class="node">
<title>Node3</title>
<g id="a_node3"><a xlink:title=" ">
<polygon fill="white" stroke="#bfbfbf" points="258,-0.5 258,-19.5 304,-19.5 304,-0.5 258,-0.5"/>
<text text-anchor="middle" x="281" y="-7.5" font-family="Helvetica,sans-Serif" font-size="10.00">cstring</text>
</a>
</g>
</g>
<!-- Node2&#45;&gt;Node3 -->
<g id="edge2" class="edge">
<title>Node2&#45;&gt;Node3</title>
<path fill="none" stroke="midnightblue" d="M209.79,-168.41C226.22,-161.23 247.16,-149.34 259,-132 280.2,-100.96 282.64,-55.39 282.11,-29.96"/>
<polygon fill="midnightblue" stroke="midnightblue" points="285.6,-29.66 281.7,-19.81 278.6,-29.94 285.6,-29.66"/>
</g>
<!-- Node4 -->
<g id="node4" class="node">
<title>Node4</title>
<g id="a_node4"><a xlink:href="ast_8hpp.html" target="_top" xlink:title="Описание класса абстрактного синтаксического дерева">
<polygon fill="white" stroke="black" points="103,-56.5 103,-75.5 151,-75.5 151,-56.5 103,-56.5"/>
<text text-anchor="middle" x="127" y="-63.5" font-family="Helvetica,sans-Serif" font-size="10.00">ast.hpp</text>
</a>
</g>
</g>
<!-- Node2&#45;&gt;Node4 -->
<g id="edge3" class="edge">
<title>Node2&#45;&gt;Node4</title>
<path fill="none" stroke="midnightblue" d="M181.37,-168.37C171.72,-150.38 149.29,-108.55 136.45,-84.63"/>
<polygon fill="midnightblue" stroke="midnightblue" points="139.42,-82.75 131.61,-75.59 133.25,-86.06 139.42,-82.75"/>
</g>
<!-- Node8 -->
<g id="node8" class="node">
<title>Node8</title>
<g id="a_node8"><a xlink:href="source_8hpp.html" target="_top" xlink:title="Описание класса исходного кода">
<polygon fill="white" stroke="black" points="184.5,-112.5 184.5,-131.5 249.5,-131.5 249.5,-112.5 184.5,-112.5"/>
<text text-anchor="middle" x="217" y="-119.5" font-family="Helvetica,sans-Serif" font-size="10.00">source.hpp</text>
</a>
</g>
</g>
<!-- Node2&#45;&gt;Node8 -->
<g id="edge8" class="edge">
<title>Node2&#45;&gt;Node8</title>
<path fill="none" stroke="midnightblue" d="M191.12,-168.08C195.41,-160.61 201.66,-149.72 206.94,-140.52"/>
<polygon fill="midnightblue" stroke="midnightblue" points="210.03,-142.17 211.98,-131.75 203.96,-138.68 210.03,-142.17"/>
</g>
<!-- Node4&#45;&gt;Node3 -->
<g id="edge6" class="edge">
<title>Node4&#45;&gt;Node3</title>
<path fill="none" stroke="midnightblue" d="M151.06,-56.56C177.09,-47.43 218.77,-32.82 247.88,-22.61"/>
<polygon fill="midnightblue" stroke="midnightblue" points="249.33,-25.81 257.61,-19.2 247.02,-19.21 249.33,-25.81"/>
</g>
<!-- Node5 -->
<g id="node5" class="node">
<title>Node5</title>
<g id="a_node5"><a xlink:title=" ">
<polygon fill="white" stroke="#bfbfbf" points="110,-0.5 110,-19.5 160,-19.5 160,-0.5 110,-0.5"/>
<text text-anchor="middle" x="135" y="-7.5" font-family="Helvetica,sans-Serif" font-size="10.00">fstream</text>
</a>
</g>
</g>
<!-- Node4&#45;&gt;Node5 -->
<g id="edge4" class="edge">
<title>Node4&#45;&gt;Node5</title>
<path fill="none" stroke="midnightblue" d="M128.32,-56.08C129.38,-48.93 130.91,-38.64 132.23,-29.69"/>
<polygon fill="midnightblue" stroke="midnightblue" points="135.7,-30.16 133.7,-19.75 128.78,-29.13 135.7,-30.16"/>
</g>
<!-- Node6 -->
<g id="node6" class="node">
<title>Node6</title>
<g id="a_node6"><a xlink:title=" ">
<polygon fill="white" stroke="#bfbfbf" points="38,-0.5 38,-19.5 92,-19.5 92,-0.5 38,-0.5"/>
<text text-anchor="middle" x="65" y="-7.5" font-family="Helvetica,sans-Serif" font-size="10.00">iostream</text>
</a>
</g>
</g>
<!-- Node4&#45;&gt;Node6 -->
<g id="edge5" class="edge">
<title>Node4&#45;&gt;Node6</title>
<path fill="none" stroke="midnightblue" d="M117.04,-56.32C107.87,-48.34 94.06,-36.31 82.97,-26.65"/>
<polygon fill="midnightblue" stroke="midnightblue" points="84.98,-23.76 75.14,-19.83 80.38,-29.04 84.98,-23.76"/>
</g>
<!-- Node7 -->
<g id="node7" class="node">
<title>Node7</title>
<g id="a_node7"><a xlink:href="debug_8hpp_source.html" target="_top" xlink:title=" ">
<polygon fill="white" stroke="black" points="178,-0.5 178,-19.5 240,-19.5 240,-0.5 178,-0.5"/>
<text text-anchor="middle" x="209" y="-7.5" font-family="Helvetica,sans-Serif" font-size="10.00">debug.hpp</text>
</a>
</g>
</g>
<!-- Node4&#45;&gt;Node7 -->
<g id="edge7" class="edge">
<title>Node4&#45;&gt;Node7</title>
<path fill="none" stroke="midnightblue" d="M140.17,-56.32C152.85,-47.98 172.23,-35.21 187.21,-25.35"/>
<polygon fill="midnightblue" stroke="midnightblue" points="189.43,-28.08 195.86,-19.65 185.58,-22.23 189.43,-28.08"/>
</g>
<!-- Node8&#45;&gt;Node3 -->
<g id="edge9" class="edge">
<title>Node8&#45;&gt;Node3</title>
<path fill="none" stroke="midnightblue" d="M222.02,-112.37C232.54,-94.3 257.04,-52.18 270.93,-28.31"/>
<polygon fill="midnightblue" stroke="midnightblue" points="274,-30 276,-19.59 267.95,-26.47 274,-30"/>
</g>
<!-- Node8&#45;&gt;Node4 -->
<g id="edge11" class="edge">
<title>Node8&#45;&gt;Node4</title>
<path fill="none" stroke="midnightblue" d="M202.54,-112.32C188.5,-103.9 166.95,-90.97 150.46,-81.07"/>
<polygon fill="midnightblue" stroke="midnightblue" points="151.8,-77.8 141.42,-75.65 148.2,-83.8 151.8,-77.8"/>
</g>
<!-- Node8&#45;&gt;Node5 -->
<g id="edge10" class="edge">
<title>Node8&#45;&gt;Node5</title>
<path fill="none" stroke="midnightblue" d="M210.57,-112.37C196.97,-94.14 165.14,-51.43 147.43,-27.68"/>
<polygon fill="midnightblue" stroke="midnightblue" points="150.19,-25.52 141.4,-19.59 144.58,-29.7 150.19,-25.52"/>
</g>
<!-- Node8&#45;&gt;Node7 -->
<g id="edge12" class="edge">
<title>Node8&#45;&gt;Node7</title>
<path fill="none" stroke="midnightblue" d="M216.37,-112.37C215.08,-94.62 212.1,-53.67 210.35,-29.6"/>
<polygon fill="midnightblue" stroke="midnightblue" points="213.84,-29.31 209.62,-19.59 206.86,-29.82 213.84,-29.31"/>
</g>
<!-- Node9&#45;&gt;Node4 -->
<g id="edge14" class="edge">
<title>Node9&#45;&gt;Node4</title>
<path fill="none" stroke="midnightblue" d="M74.12,-112.32C83.53,-104.26 97.74,-92.08 109.07,-82.37"/>
<polygon fill="midnightblue" stroke="midnightblue" points="111.38,-85 116.69,-75.83 106.82,-79.68 111.38,-85"/>
</g>
</g>
</svg>
