<?xml version="1.0" encoding="UTF-8" standalone="no"?>
<!DOCTYPE svg PUBLIC "-//W3C//DTD SVG 1.1//EN"
 "http://www.w3.org/Graphics/SVG/1.1/DTD/svg11.dtd">
<!-- Generated by graphviz version 2.43.0 (0)
 -->
<!-- Title: Source Pages: 1 -->
<svg width="158pt" height="175pt"
 viewBox="0.00 0.00 158.00 175.00" xmlns="http://www.w3.org/2000/svg" xmlns:xlink="http://www.w3.org/1999/xlink">
<g id="graph0" class="graph" transform="scale(1 1) rotate(0) translate(4 171)">
<title>Source</title>
<polygon fill="white" stroke="transparent" points="-4,4 -4,-171 154,-171 154,4 -4,4"/>
<!-- Node1 -->
<g id="node1" class="node">
<title>Node1</title>
<g id="a_node1"><a xlink:title=" ">
<polygon fill="#bfbfbf" stroke="black" points="28.5,-0.5 28.5,-19.5 75.5,-19.5 75.5,-0.5 28.5,-0.5"/>
<text text-anchor="middle" x="52" y="-7.5" font-family="Helvetica,sans-Serif" font-size="10.00">Source</text>
</a>
</g>
</g>
<!-- Node2 -->
<g id="node2" class="node">
<title>Node2</title>
<g id="a_node2"><a xlink:href="classAbstractSyntaxTree.html" target="_top" xlink:title=" ">
<polygon fill="white" stroke="black" points="0,-67.5 0,-86.5 104,-86.5 104,-67.5 0,-67.5"/>
<text text-anchor="middle" x="52" y="-74.5" font-family="Helvetica,sans-Serif" font-size="10.00">AbstractSyntaxTree</text>
</a>
</g>
</g>
<!-- Node2&#45;&gt;Node1 -->
<g id="edge1" class="edge">
<title>Node2&#45;&gt;Node1</title>
<path fill="none" stroke="#9a32cd" stroke-dasharray="5,2" d="M52,-57.04C52,-44.67 52,-29.12 52,-19.63"/>
<polygon fill="#9a32cd" stroke="#9a32cd" points="48.5,-57.23 52,-67.23 55.5,-57.23 48.5,-57.23"/>
<text text-anchor="middle" x="60.5" y="-41" font-family="Helvetica,sans-Serif" font-size="10.00"> ast</text>
</g>
<!-- Node3 -->
<g id="node3" class="node">
<title>Node3</title>
<g id="a_node3"><a xlink:href="classAbstractSyntaxTree_1_1Node.html" target="_top" xlink:title=" ">
<polygon fill="white" stroke="black" points="0,-135.5 0,-165.5 104,-165.5 104,-135.5 0,-135.5"/>
<text text-anchor="start" x="8" y="-153.5" font-family="Helvetica,sans-Serif" font-size="10.00">AbstractSyntaxTree</text>
<text text-anchor="middle" x="52" y="-142.5" font-family="Helvetica,sans-Serif" font-size="10.00">::Node</text>
</a>
</g>
</g>
<!-- Node3&#45;&gt;Node2 -->
<g id="edge2" class="edge">
<title>Node3&#45;&gt;Node2</title>
<path fill="none" stroke="#9a32cd" stroke-dasharray="5,2" d="M52,-125.36C52,-112.01 52,-96.25 52,-86.7"/>
<polygon fill="#9a32cd" stroke="#9a32cd" points="48.5,-125.37 52,-135.37 55.5,-125.37 48.5,-125.37"/>
<text text-anchor="middle" x="64.5" y="-108" font-family="Helvetica,sans-Serif" font-size="10.00"> head</text>
</g>
<!-- Node3&#45;&gt;Node3 -->
<g id="edge3" class="edge">
<title>Node3&#45;&gt;Node3</title>
<path fill="none" stroke="#9a32cd" stroke-dasharray="5,2" d="M114.4,-156.11C119.11,-154.86 122,-152.99 122,-150.5 122,-146.52 114.59,-144.12 104.2,-143.31"/>
<polygon fill="#9a32cd" stroke="#9a32cd" points="113.55,-152.7 104.2,-157.69 114.62,-159.62 113.55,-152.7"/>
<text text-anchor="middle" x="136" y="-159" font-family="Helvetica,sans-Serif" font-size="10.00"> right</text>
<text text-anchor="middle" x="136" y="-148" font-family="Helvetica,sans-Serif" font-size="10.00">left</text>
<text text-anchor="middle" x="136" y="-137" font-family="Helvetica,sans-Serif" font-size="10.00">parent</text>
</g>
</g>
</svg>
