<?xml version="1.0" encoding="UTF-8" standalone="no"?>
<!DOCTYPE svg PUBLIC "-//W3C//DTD SVG 1.1//EN"
 "http://www.w3.org/Graphics/SVG/1.1/DTD/svg11.dtd">
<!-- Generated by graphviz version 2.43.0 (0)
 -->
<!-- Title: Compiler Pages: 1 -->
<svg width="264pt" height="322pt"
 viewBox="0.00 0.00 264.00 322.00" xmlns="http://www.w3.org/2000/svg" xmlns:xlink="http://www.w3.org/1999/xlink">
<g id="graph0" class="graph" transform="scale(1 1) rotate(0) translate(4 318)">
<title>Compiler</title>
<polygon fill="white" stroke="transparent" points="-4,4 -4,-318 260,-318 260,4 -4,4"/>
<!-- Node1 -->
<g id="node1" class="node">
<title>Node1</title>
<g id="a_node1"><a xlink:title="Класс компилятора">
<polygon fill="#bfbfbf" stroke="black" points="98,-0.5 98,-19.5 154,-19.5 154,-0.5 98,-0.5"/>
<text text-anchor="middle" x="126" y="-7.5" font-family="Helvetica,sans-Serif" font-size="10.00">Compiler</text>
</a>
</g>
</g>
<!-- Node2 -->
<g id="node2" class="node">
<title>Node2</title>
<g id="a_node2"><a xlink:href="classSource.html" target="_top" xlink:title=" ">
<polygon fill="white" stroke="black" points="134.5,-146.5 134.5,-165.5 181.5,-165.5 181.5,-146.5 134.5,-146.5"/>
<text text-anchor="middle" x="158" y="-153.5" font-family="Helvetica,sans-Serif" font-size="10.00">Source</text>
</a>
</g>
</g>
<!-- Node2&#45;&gt;Node1 -->
<g id="edge1" class="edge">
<title>Node2&#45;&gt;Node1</title>
<path fill="none" stroke="#9a32cd" stroke-dasharray="5,2" d="M158.4,-136.44C158.33,-112.83 156.23,-71.15 144,-38 141.58,-31.45 137.28,-24.91 133.49,-19.91"/>
<polygon fill="#9a32cd" stroke="#9a32cd" points="154.9,-136.43 158.31,-146.46 161.9,-136.49 154.9,-136.43"/>
<text text-anchor="middle" x="180.5" y="-74.5" font-family="Helvetica,sans-Serif" font-size="10.00"> source_list</text>
</g>
<!-- Node5 -->
<g id="node5" class="node">
<title>Node5</title>
<g id="a_node5"><a xlink:href="classBinary.html" target="_top" xlink:title=" ">
<polygon fill="white" stroke="black" points="71.5,-67.5 71.5,-86.5 116.5,-86.5 116.5,-67.5 71.5,-67.5"/>
<text text-anchor="middle" x="94" y="-74.5" font-family="Helvetica,sans-Serif" font-size="10.00">Binary</text>
</a>
</g>
</g>
<!-- Node2&#45;&gt;Node5 -->
<g id="edge8" class="edge">
<title>Node2&#45;&gt;Node5</title>
<path fill="none" stroke="#9a32cd" stroke-dasharray="5,2" d="M127.88,-141.33C121.65,-137.41 115.6,-132.64 111,-127 101.33,-115.13 97.01,-97.42 95.19,-86.86"/>
<polygon fill="#9a32cd" stroke="#9a32cd" points="126.54,-144.6 136.97,-146.46 129.98,-138.5 126.54,-144.6"/>
<text text-anchor="middle" x="127.5" y="-113.5" font-family="Helvetica,sans-Serif" font-size="10.00"> source</text>
</g>
<!-- Node3 -->
<g id="node3" class="node">
<title>Node3</title>
<g id="a_node3"><a xlink:href="classAbstractSyntaxTree.html" target="_top" xlink:title=" ">
<polygon fill="white" stroke="black" points="106,-214.5 106,-233.5 210,-233.5 210,-214.5 106,-214.5"/>
<text text-anchor="middle" x="158" y="-221.5" font-family="Helvetica,sans-Serif" font-size="10.00">AbstractSyntaxTree</text>
</a>
</g>
</g>
<!-- Node3&#45;&gt;Node2 -->
<g id="edge2" class="edge">
<title>Node3&#45;&gt;Node2</title>
<path fill="none" stroke="#9a32cd" stroke-dasharray="5,2" d="M158,-204.04C158,-191.47 158,-175.56 158,-165.84"/>
<polygon fill="#9a32cd" stroke="#9a32cd" points="154.5,-204.37 158,-214.37 161.5,-204.37 154.5,-204.37"/>
<text text-anchor="middle" x="166.5" y="-188" font-family="Helvetica,sans-Serif" font-size="10.00"> ast</text>
</g>
<!-- Node4 -->
<g id="node4" class="node">
<title>Node4</title>
<g id="a_node4"><a xlink:href="classAbstractSyntaxTree_1_1Node.html" target="_top" xlink:title=" ">
<polygon fill="white" stroke="black" points="106,-282.5 106,-312.5 210,-312.5 210,-282.5 106,-282.5"/>
<text text-anchor="start" x="114" y="-300.5" font-family="Helvetica,sans-Serif" font-size="10.00">AbstractSyntaxTree</text>
<text text-anchor="middle" x="158" y="-289.5" font-family="Helvetica,sans-Serif" font-size="10.00">::Node</text>
</a>
</g>
</g>
<!-- Node4&#45;&gt;Node3 -->
<g id="edge3" class="edge">
<title>Node4&#45;&gt;Node3</title>
<path fill="none" stroke="#9a32cd" stroke-dasharray="5,2" d="M158,-272.36C158,-259.01 158,-243.25 158,-233.7"/>
<polygon fill="#9a32cd" stroke="#9a32cd" points="154.5,-272.37 158,-282.37 161.5,-272.37 154.5,-272.37"/>
<text text-anchor="middle" x="170.5" y="-255" font-family="Helvetica,sans-Serif" font-size="10.00"> head</text>
</g>
<!-- Node4&#45;&gt;Node4 -->
<g id="edge4" class="edge">
<title>Node4&#45;&gt;Node4</title>
<path fill="none" stroke="#9a32cd" stroke-dasharray="5,2" d="M220.4,-303.11C225.11,-301.86 228,-299.99 228,-297.5 228,-293.52 220.59,-291.12 210.2,-290.31"/>
<polygon fill="#9a32cd" stroke="#9a32cd" points="219.55,-299.7 210.2,-304.69 220.62,-306.62 219.55,-299.7"/>
<text text-anchor="middle" x="242" y="-306" font-family="Helvetica,sans-Serif" font-size="10.00"> right</text>
<text text-anchor="middle" x="242" y="-295" font-family="Helvetica,sans-Serif" font-size="10.00">left</text>
<text text-anchor="middle" x="242" y="-284" font-family="Helvetica,sans-Serif" font-size="10.00">parent</text>
</g>
<!-- Node5&#45;&gt;Node1 -->
<g id="edge5" class="edge">
<title>Node5&#45;&gt;Node1</title>
<path fill="none" stroke="#9a32cd" stroke-dasharray="5,2" d="M91.52,-57.03C91.46,-50.72 92.26,-43.82 95,-38 98.53,-30.51 105.22,-24.26 111.49,-19.67"/>
<polygon fill="#9a32cd" stroke="#9a32cd" points="88.06,-57.7 92.33,-67.4 95.04,-57.16 88.06,-57.7"/>
<text text-anchor="middle" x="119.5" y="-41" font-family="Helvetica,sans-Serif" font-size="10.00"> binary_list</text>
</g>
<!-- Node6 -->
<g id="node6" class="node">
<title>Node6</title>
<g id="a_node6"><a xlink:href="classBinary_1_1Token.html" target="_top" xlink:title=" ">
<polygon fill="white" stroke="black" points="0,-146.5 0,-165.5 76,-165.5 76,-146.5 0,-146.5"/>
<text text-anchor="middle" x="38" y="-153.5" font-family="Helvetica,sans-Serif" font-size="10.00">Binary::Token</text>
</a>
</g>
</g>
<!-- Node6&#45;&gt;Node5 -->
<g id="edge6" class="edge">
<title>Node6&#45;&gt;Node5</title>
<path fill="none" stroke="#9a32cd" stroke-dasharray="5,2" d="M43.71,-136.46C47.36,-126.5 52.77,-114.37 60,-105 65.52,-97.84 73.34,-91.46 80.09,-86.7"/>
<polygon fill="#9a32cd" stroke="#9a32cd" points="40.31,-135.59 40.45,-146.18 46.95,-137.82 40.31,-135.59"/>
<text text-anchor="middle" x="70.5" y="-119" font-family="Helvetica,sans-Serif" font-size="10.00"> end</text>
<text text-anchor="middle" x="70.5" y="-108" font-family="Helvetica,sans-Serif" font-size="10.00">start</text>
</g>
<!-- Node6&#45;&gt;Node6 -->
<g id="edge7" class="edge">
<title>Node6&#45;&gt;Node6</title>
<path fill="none" stroke="#9a32cd" stroke-dasharray="5,2" d="M86.29,-161.18C91.01,-160.13 94,-158.41 94,-156 94,-152.15 86.33,-150.04 76.21,-149.68"/>
<polygon fill="#9a32cd" stroke="#9a32cd" points="85.76,-157.71 76.21,-162.32 86.54,-164.67 85.76,-157.71"/>
<text text-anchor="middle" x="105" y="-159" font-family="Helvetica,sans-Serif" font-size="10.00"> prev</text>
<text text-anchor="middle" x="105" y="-148" font-family="Helvetica,sans-Serif" font-size="10.00">next</text>
</g>
</g>
</svg>
