<?xml version="1.0" encoding="UTF-8" standalone="no"?>
<!DOCTYPE svg PUBLIC "-//W3C//DTD SVG 1.1//EN"
 "http://www.w3.org/Graphics/SVG/1.1/DTD/svg11.dtd">
<!-- Generated by graphviz version 2.43.0 (0)
 -->
<!-- Title: Binary Pages: 1 -->
<svg width="264pt" height="255pt"
 viewBox="0.00 0.00 264.00 255.00" xmlns="http://www.w3.org/2000/svg" xmlns:xlink="http://www.w3.org/1999/xlink">
<g id="graph0" class="graph" transform="scale(1 1) rotate(0) translate(4 251)">
<title>Binary</title>
<polygon fill="white" stroke="transparent" points="-4,4 -4,-251 260,-251 260,4 -4,4"/>
<!-- Node1 -->
<g id="node1" class="node">
<title>Node1</title>
<g id="a_node1"><a xlink:title=" ">
<polygon fill="#bfbfbf" stroke="black" points="75.5,-0.5 75.5,-19.5 120.5,-19.5 120.5,-0.5 75.5,-0.5"/>
<text text-anchor="middle" x="98" y="-7.5" font-family="Helvetica,sans-Serif" font-size="10.00">Binary</text>
</a>
</g>
</g>
<!-- Node2 -->
<g id="node2" class="node">
<title>Node2</title>
<g id="a_node2"><a xlink:href="classBinary_1_1Token.html" target="_top" xlink:title=" ">
<polygon fill="white" stroke="black" points="0,-79.5 0,-98.5 76,-98.5 76,-79.5 0,-79.5"/>
<text text-anchor="middle" x="38" y="-86.5" font-family="Helvetica,sans-Serif" font-size="10.00">Binary::Token</text>
</a>
</g>
</g>
<!-- Node2&#45;&gt;Node1 -->
<g id="edge1" class="edge">
<title>Node2&#45;&gt;Node1</title>
<path fill="none" stroke="#9a32cd" stroke-dasharray="5,2" d="M50.81,-71.56C63.15,-55.73 81.33,-32.39 91.14,-19.81"/>
<polygon fill="#9a32cd" stroke="#9a32cd" points="48.04,-69.43 44.65,-79.47 53.56,-73.73 48.04,-69.43"/>
<text text-anchor="middle" x="87.5" y="-52" font-family="Helvetica,sans-Serif" font-size="10.00"> end</text>
<text text-anchor="middle" x="87.5" y="-41" font-family="Helvetica,sans-Serif" font-size="10.00">start</text>
</g>
<!-- Node2&#45;&gt;Node2 -->
<g id="edge2" class="edge">
<title>Node2&#45;&gt;Node2</title>
<path fill="none" stroke="#9a32cd" stroke-dasharray="5,2" d="M86.29,-94.18C91.01,-93.13 94,-91.41 94,-89 94,-85.15 86.33,-83.04 76.21,-82.68"/>
<polygon fill="#9a32cd" stroke="#9a32cd" points="85.76,-90.71 76.21,-95.32 86.54,-97.67 85.76,-90.71"/>
<text text-anchor="middle" x="105" y="-92" font-family="Helvetica,sans-Serif" font-size="10.00"> prev</text>
<text text-anchor="middle" x="105" y="-81" font-family="Helvetica,sans-Serif" font-size="10.00">next</text>
</g>
<!-- Node3 -->
<g id="node3" class="node">
<title>Node3</title>
<g id="a_node3"><a xlink:href="classSource.html" target="_top" xlink:title=" ">
<polygon fill="white" stroke="black" points="134.5,-79.5 134.5,-98.5 181.5,-98.5 181.5,-79.5 134.5,-79.5"/>
<text text-anchor="middle" x="158" y="-86.5" font-family="Helvetica,sans-Serif" font-size="10.00">Source</text>
</a>
</g>
</g>
<!-- Node3&#45;&gt;Node1 -->
<g id="edge3" class="edge">
<title>Node3&#45;&gt;Node1</title>
<path fill="none" stroke="#9a32cd" stroke-dasharray="5,2" d="M145.19,-71.56C132.85,-55.73 114.67,-32.39 104.86,-19.81"/>
<polygon fill="#9a32cd" stroke="#9a32cd" points="142.44,-73.73 151.35,-79.47 147.96,-69.43 142.44,-73.73"/>
<text text-anchor="middle" x="151.5" y="-46.5" font-family="Helvetica,sans-Serif" font-size="10.00"> source</text>
</g>
<!-- Node4 -->
<g id="node4" class="node">
<title>Node4</title>
<g id="a_node4"><a xlink:href="classAbstractSyntaxTree.html" target="_top" xlink:title=" ">
<polygon fill="white" stroke="black" points="106,-147.5 106,-166.5 210,-166.5 210,-147.5 106,-147.5"/>
<text text-anchor="middle" x="158" y="-154.5" font-family="Helvetica,sans-Serif" font-size="10.00">AbstractSyntaxTree</text>
</a>
</g>
</g>
<!-- Node4&#45;&gt;Node3 -->
<g id="edge4" class="edge">
<title>Node4&#45;&gt;Node3</title>
<path fill="none" stroke="#9a32cd" stroke-dasharray="5,2" d="M158,-137.04C158,-124.47 158,-108.56 158,-98.84"/>
<polygon fill="#9a32cd" stroke="#9a32cd" points="154.5,-137.37 158,-147.37 161.5,-137.37 154.5,-137.37"/>
<text text-anchor="middle" x="166.5" y="-121" font-family="Helvetica,sans-Serif" font-size="10.00"> ast</text>
</g>
<!-- Node5 -->
<g id="node5" class="node">
<title>Node5</title>
<g id="a_node5"><a xlink:href="classAbstractSyntaxTree_1_1Node.html" target="_top" xlink:title=" ">
<polygon fill="white" stroke="black" points="106,-215.5 106,-245.5 210,-245.5 210,-215.5 106,-215.5"/>
<text text-anchor="start" x="114" y="-233.5" font-family="Helvetica,sans-Serif" font-size="10.00">AbstractSyntaxTree</text>
<text text-anchor="middle" x="158" y="-222.5" font-family="Helvetica,sans-Serif" font-size="10.00">::Node</text>
</a>
</g>
</g>
<!-- Node5&#45;&gt;Node4 -->
<g id="edge5" class="edge">
<title>Node5&#45;&gt;Node4</title>
<path fill="none" stroke="#9a32cd" stroke-dasharray="5,2" d="M158,-205.36C158,-192.01 158,-176.25 158,-166.7"/>
<polygon fill="#9a32cd" stroke="#9a32cd" points="154.5,-205.37 158,-215.37 161.5,-205.37 154.5,-205.37"/>
<text text-anchor="middle" x="170.5" y="-188" font-family="Helvetica,sans-Serif" font-size="10.00"> head</text>
</g>
<!-- Node5&#45;&gt;Node5 -->
<g id="edge6" class="edge">
<title>Node5&#45;&gt;Node5</title>
<path fill="none" stroke="#9a32cd" stroke-dasharray="5,2" d="M220.4,-236.11C225.11,-234.86 228,-232.99 228,-230.5 228,-226.52 220.59,-224.12 210.2,-223.31"/>
<polygon fill="#9a32cd" stroke="#9a32cd" points="219.55,-232.7 210.2,-237.69 220.62,-239.62 219.55,-232.7"/>
<text text-anchor="middle" x="242" y="-239" font-family="Helvetica,sans-Serif" font-size="10.00"> right</text>
<text text-anchor="middle" x="242" y="-228" font-family="Helvetica,sans-Serif" font-size="10.00">left</text>
<text text-anchor="middle" x="242" y="-217" font-family="Helvetica,sans-Serif" font-size="10.00">parent</text>
</g>
</g>
</svg>
