<?xml version="1.0" encoding="UTF-8" standalone="no"?>
<!DOCTYPE svg PUBLIC "-//W3C//DTD SVG 1.1//EN"
 "http://www.w3.org/Graphics/SVG/1.1/DTD/svg11.dtd">
<!-- Generated by graphviz version 2.43.0 (0)
 -->
<!-- Title: Headers/compiler.hpp Pages: 1 -->
<svg width="276pt" height="252pt"
 viewBox="0.00 0.00 276.00 252.00" xmlns="http://www.w3.org/2000/svg" xmlns:xlink="http://www.w3.org/1999/xlink">
<g id="graph0" class="graph" transform="scale(1 1) rotate(0) translate(4 248)">
<title>Headers/compiler.hpp</title>
<polygon fill="white" stroke="transparent" points="-4,4 -4,-248 272,-248 272,4 -4,4"/>
<!-- Node1 -->
<g id="node1" class="node">
<title>Node1</title>
<g id="a_node1"><a xlink:title="Заголовочный файл с описанием класса компилятора">
<polygon fill="#bfbfbf" stroke="black" points="99.5,-224.5 99.5,-243.5 212.5,-243.5 212.5,-224.5 99.5,-224.5"/>
<text text-anchor="middle" x="156" y="-231.5" font-family="Helvetica,sans-Serif" font-size="10.00">Headers/compiler.hpp</text>
</a>
</g>
</g>
<!-- Node2 -->
<g id="node2" class="node">
<title>Node2</title>
<g id="a_node2"><a xlink:title=" ">
<polygon fill="white" stroke="#bfbfbf" points="0,-0.5 0,-19.5 46,-19.5 46,-0.5 0,-0.5"/>
<text text-anchor="middle" x="23" y="-7.5" font-family="Helvetica,sans-Serif" font-size="10.00">cstring</text>
</a>
</g>
</g>
<!-- Node1&#45;&gt;Node2 -->
<g id="edge1" class="edge">
<title>Node1&#45;&gt;Node2</title>
<path fill="none" stroke="midnightblue" d="M141.41,-224.38C116.64,-208.98 66.37,-174.38 39,-132 18.77,-100.66 18.79,-55.21 20.79,-29.87"/>
<polygon fill="midnightblue" stroke="midnightblue" points="24.28,-30.06 21.77,-19.76 17.32,-29.38 24.28,-30.06"/>
</g>
<!-- Node3 -->
<g id="node3" class="node">
<title>Node3</title>
<g id="a_node3"><a xlink:title=" ">
<polygon fill="white" stroke="#bfbfbf" points="218,-0.5 218,-19.5 268,-19.5 268,-0.5 218,-0.5"/>
<text text-anchor="middle" x="243" y="-7.5" font-family="Helvetica,sans-Serif" font-size="10.00">fstream</text>
</a>
</g>
</g>
<!-- Node1&#45;&gt;Node3 -->
<g id="edge2" class="edge">
<title>Node1&#45;&gt;Node3</title>
<path fill="none" stroke="midnightblue" d="M172.22,-224.37C185.13,-216.62 202.55,-204 212,-188 242.09,-137.06 244.61,-64.46 243.9,-30.25"/>
<polygon fill="midnightblue" stroke="midnightblue" points="247.38,-29.72 243.55,-19.84 240.39,-29.95 247.38,-29.72"/>
</g>
<!-- Node4 -->
<g id="node4" class="node">
<title>Node4</title>
<g id="a_node4"><a xlink:title=" ">
<polygon fill="white" stroke="#bfbfbf" points="146,-0.5 146,-19.5 200,-19.5 200,-0.5 146,-0.5"/>
<text text-anchor="middle" x="173" y="-7.5" font-family="Helvetica,sans-Serif" font-size="10.00">iostream</text>
</a>
</g>
</g>
<!-- Node1&#45;&gt;Node4 -->
<g id="edge3" class="edge">
<title>Node1&#45;&gt;Node4</title>
<path fill="none" stroke="midnightblue" d="M167.27,-224.43C176.97,-216.27 190.28,-203.05 196,-188 216.97,-132.85 194.02,-61.83 180.89,-29.05"/>
<polygon fill="midnightblue" stroke="midnightblue" points="184.12,-27.7 177.04,-19.82 177.66,-30.4 184.12,-27.7"/>
</g>
<!-- Node5 -->
<g id="node5" class="node">
<title>Node5</title>
<g id="a_node5"><a xlink:href="source_8hpp.html" target="_top" xlink:title="Описание класса исходного кода">
<polygon fill="white" stroke="black" points="64.5,-112.5 64.5,-131.5 129.5,-131.5 129.5,-112.5 64.5,-112.5"/>
<text text-anchor="middle" x="97" y="-119.5" font-family="Helvetica,sans-Serif" font-size="10.00">source.hpp</text>
</a>
</g>
</g>
<!-- Node1&#45;&gt;Node5 -->
<g id="edge4" class="edge">
<title>Node1&#45;&gt;Node5</title>
<path fill="none" stroke="midnightblue" d="M146.07,-224.3C137.02,-215.86 123.9,-202.27 116,-188 107.99,-173.53 103.05,-155.35 100.22,-141.89"/>
<polygon fill="midnightblue" stroke="midnightblue" points="103.62,-141.06 98.32,-131.89 96.75,-142.37 103.62,-141.06"/>
</g>
<!-- Node8 -->
<g id="node8" class="node">
<title>Node8</title>
<g id="a_node8"><a xlink:href="binary_8hpp.html" target="_top" xlink:title="Описание класса бинарного кода">
<polygon fill="white" stroke="black" points="125,-168.5 125,-187.5 187,-187.5 187,-168.5 125,-168.5"/>
<text text-anchor="middle" x="156" y="-175.5" font-family="Helvetica,sans-Serif" font-size="10.00">binary.hpp</text>
</a>
</g>
</g>
<!-- Node1&#45;&gt;Node8 -->
<g id="edge13" class="edge">
<title>Node1&#45;&gt;Node8</title>
<path fill="none" stroke="midnightblue" d="M156,-224.08C156,-217.01 156,-206.86 156,-197.99"/>
<polygon fill="midnightblue" stroke="midnightblue" points="159.5,-197.75 156,-187.75 152.5,-197.75 159.5,-197.75"/>
</g>
<!-- Node5&#45;&gt;Node2 -->
<g id="edge5" class="edge">
<title>Node5&#45;&gt;Node2</title>
<path fill="none" stroke="midnightblue" d="M91.19,-112.37C78.98,-94.22 50.45,-51.8 34.43,-27.99"/>
<polygon fill="midnightblue" stroke="midnightblue" points="37.27,-25.94 28.78,-19.59 31.46,-29.84 37.27,-25.94"/>
</g>
<!-- Node5&#45;&gt;Node3 -->
<g id="edge6" class="edge">
<title>Node5&#45;&gt;Node3</title>
<path fill="none" stroke="midnightblue" d="M117.7,-112.38C135.64,-104.38 161.83,-91.4 182,-76 200.54,-61.85 218.39,-41.83 229.94,-27.76"/>
<polygon fill="midnightblue" stroke="midnightblue" points="232.74,-29.86 236.27,-19.87 227.28,-25.48 232.74,-29.86"/>
</g>
<!-- Node6 -->
<g id="node6" class="node">
<title>Node6</title>
<g id="a_node6"><a xlink:href="ast_8hpp.html" target="_top" xlink:title="Описание класса абстрактного синтаксического дерева">
<polygon fill="white" stroke="black" points="125,-56.5 125,-75.5 173,-75.5 173,-56.5 125,-56.5"/>
<text text-anchor="middle" x="149" y="-63.5" font-family="Helvetica,sans-Serif" font-size="10.00">ast.hpp</text>
</a>
</g>
</g>
<!-- Node5&#45;&gt;Node6 -->
<g id="edge7" class="edge">
<title>Node5&#45;&gt;Node6</title>
<path fill="none" stroke="midnightblue" d="M105.59,-112.08C113.16,-104.22 124.38,-92.57 133.51,-83.08"/>
<polygon fill="midnightblue" stroke="midnightblue" points="136.16,-85.38 140.57,-75.75 131.12,-80.53 136.16,-85.38"/>
</g>
<!-- Node7 -->
<g id="node7" class="node">
<title>Node7</title>
<g id="a_node7"><a xlink:href="debug_8hpp_source.html" target="_top" xlink:title=" ">
<polygon fill="white" stroke="black" points="66,-0.5 66,-19.5 128,-19.5 128,-0.5 66,-0.5"/>
<text text-anchor="middle" x="97" y="-7.5" font-family="Helvetica,sans-Serif" font-size="10.00">debug.hpp</text>
</a>
</g>
</g>
<!-- Node5&#45;&gt;Node7 -->
<g id="edge12" class="edge">
<title>Node5&#45;&gt;Node7</title>
<path fill="none" stroke="midnightblue" d="M97,-112.37C97,-94.62 97,-53.67 97,-29.6"/>
<polygon fill="midnightblue" stroke="midnightblue" points="100.5,-29.59 97,-19.59 93.5,-29.59 100.5,-29.59"/>
</g>
<!-- Node6&#45;&gt;Node2 -->
<g id="edge10" class="edge">
<title>Node6&#45;&gt;Node2</title>
<path fill="none" stroke="midnightblue" d="M129.03,-56.44C108.39,-47.6 75.94,-33.69 52.37,-23.59"/>
<polygon fill="midnightblue" stroke="midnightblue" points="53.44,-20.24 42.87,-19.52 50.68,-26.67 53.44,-20.24"/>
</g>
<!-- Node6&#45;&gt;Node3 -->
<g id="edge8" class="edge">
<title>Node6&#45;&gt;Node3</title>
<path fill="none" stroke="midnightblue" d="M164.1,-56.32C178.9,-47.82 201.69,-34.73 218.98,-24.8"/>
<polygon fill="midnightblue" stroke="midnightblue" points="221.01,-27.67 227.93,-19.65 217.52,-21.6 221.01,-27.67"/>
</g>
<!-- Node6&#45;&gt;Node4 -->
<g id="edge9" class="edge">
<title>Node6&#45;&gt;Node4</title>
<path fill="none" stroke="midnightblue" d="M152.96,-56.08C156.21,-48.77 160.92,-38.18 164.95,-29.1"/>
<polygon fill="midnightblue" stroke="midnightblue" points="168.25,-30.31 169.11,-19.75 161.85,-27.47 168.25,-30.31"/>
</g>
<!-- Node6&#45;&gt;Node7 -->
<g id="edge11" class="edge">
<title>Node6&#45;&gt;Node7</title>
<path fill="none" stroke="midnightblue" d="M140.41,-56.08C132.84,-48.22 121.62,-36.57 112.49,-27.08"/>
<polygon fill="midnightblue" stroke="midnightblue" points="114.88,-24.53 105.43,-19.75 109.84,-29.38 114.88,-24.53"/>
</g>
<!-- Node8&#45;&gt;Node2 -->
<g id="edge14" class="edge">
<title>Node8&#45;&gt;Node2</title>
<path fill="none" stroke="midnightblue" d="M124.74,-170.66C102.22,-164.5 72.79,-152.91 55,-132 29.97,-102.59 24.27,-55.71 23.13,-29.78"/>
<polygon fill="midnightblue" stroke="midnightblue" points="26.62,-29.68 22.87,-19.77 19.63,-29.86 26.62,-29.68"/>
</g>
<!-- Node8&#45;&gt;Node5 -->
<g id="edge16" class="edge">
<title>Node8&#45;&gt;Node5</title>
<path fill="none" stroke="midnightblue" d="M146.52,-168.32C137.8,-160.34 124.66,-148.31 114.1,-138.65"/>
<polygon fill="midnightblue" stroke="midnightblue" points="116.39,-136 106.65,-131.83 111.67,-141.17 116.39,-136"/>
</g>
<!-- Node8&#45;&gt;Node6 -->
<g id="edge15" class="edge">
<title>Node8&#45;&gt;Node6</title>
<path fill="none" stroke="midnightblue" d="M155.45,-168.37C154.32,-150.62 151.72,-109.67 150.18,-85.6"/>
<polygon fill="midnightblue" stroke="midnightblue" points="153.67,-85.35 149.55,-75.59 146.69,-85.79 153.67,-85.35"/>
</g>
</g>
</svg>
