<?xml version="1.0" encoding="UTF-8" standalone="no"?>
<!DOCTYPE svg PUBLIC "-//W3C//DTD SVG 1.1//EN"
 "http://www.w3.org/Graphics/SVG/1.1/DTD/svg11.dtd">
<!-- Generated by graphviz version 2.43.0 (0)
 -->
<!-- Title: main Pages: 1 -->
<svg width="206pt" height="332pt"
 viewBox="0.00 0.00 206.00 332.00" xmlns="http://www.w3.org/2000/svg" xmlns:xlink="http://www.w3.org/1999/xlink">
<g id="graph0" class="graph" transform="scale(1 1) rotate(0) translate(4 328)">
<title>main</title>
<polygon fill="white" stroke="transparent" points="-4,4 -4,-328 202,-328 202,4 -4,4"/>
<!-- Node1 -->
<g id="node1" class="node">
<title>Node1</title>
<g id="a_node1"><a xlink:title=" ">
<polygon fill="#bfbfbf" stroke="black" points="0,-152.5 0,-171.5 38,-171.5 38,-152.5 0,-152.5"/>
<text text-anchor="middle" x="19" y="-159.5" font-family="Helvetica,sans-Serif" font-size="10.00">main</text>
</a>
</g>
</g>
<!-- Node2 -->
<g id="node2" class="node">
<title>Node2</title>
<g id="a_node2"><a xlink:href="classCompiler.html#a4eb6d2076006863fc52116489c7b4ec8" target="_top" xlink:title="Компиляция всех объектов Binary в байт код">
<polygon fill="white" stroke="black" points="88.5,-304.5 88.5,-323.5 183.5,-323.5 183.5,-304.5 88.5,-304.5"/>
<text text-anchor="middle" x="136" y="-311.5" font-family="Helvetica,sans-Serif" font-size="10.00">Compiler::compile</text>
</a>
</g>
</g>
<!-- Node1&#45;&gt;Node2 -->
<g id="edge1" class="edge">
<title>Node1&#45;&gt;Node2</title>
<path fill="none" stroke="midnightblue" d="M21.1,-171.62C24.39,-195.94 36.4,-260.42 74,-295 75.72,-296.59 77.58,-298.04 79.53,-299.37"/>
<polygon fill="midnightblue" stroke="midnightblue" points="78.18,-302.63 88.62,-304.47 81.61,-296.52 78.18,-302.63"/>
</g>
<!-- Node3 -->
<g id="node3" class="node">
<title>Node3</title>
<g id="a_node3"><a xlink:href="classCompiler.html#ad6f8735308e80c9b2fa260484de0667d" target="_top" xlink:title="Создание массива скомпилированных исходников">
<polygon fill="white" stroke="black" points="74,-266.5 74,-285.5 198,-285.5 198,-266.5 74,-266.5"/>
<text text-anchor="middle" x="136" y="-273.5" font-family="Helvetica,sans-Serif" font-size="10.00">Compiler::createBinaries</text>
</a>
</g>
</g>
<!-- Node1&#45;&gt;Node3 -->
<g id="edge2" class="edge">
<title>Node1&#45;&gt;Node3</title>
<path fill="none" stroke="midnightblue" d="M22.83,-171.66C28.94,-190.82 45.19,-233.8 74,-257 76.27,-258.83 78.71,-260.48 81.27,-261.97"/>
<polygon fill="midnightblue" stroke="midnightblue" points="79.82,-265.16 90.34,-266.46 82.93,-258.89 79.82,-265.16"/>
</g>
<!-- Node4 -->
<g id="node4" class="node">
<title>Node4</title>
<g id="a_node4"><a xlink:href="classCompiler.html#a46ba28db0dc240d2c5f2c00e35220a41" target="_top" xlink:title="Дамп синтаксических деревьев в файлы">
<polygon fill="white" stroke="black" points="83.5,-228.5 83.5,-247.5 188.5,-247.5 188.5,-228.5 83.5,-228.5"/>
<text text-anchor="middle" x="136" y="-235.5" font-family="Helvetica,sans-Serif" font-size="10.00">Compiler::dumpAST</text>
</a>
</g>
</g>
<!-- Node1&#45;&gt;Node4 -->
<g id="edge3" class="edge">
<title>Node1&#45;&gt;Node4</title>
<path fill="none" stroke="midnightblue" d="M26.56,-171.5C35.75,-184.13 53.64,-206.31 74,-219 77.35,-221.08 80.94,-222.96 84.65,-224.64"/>
<polygon fill="midnightblue" stroke="midnightblue" points="83.44,-227.92 94.02,-228.42 86.06,-221.43 83.44,-227.92"/>
</g>
<!-- Node5 -->
<g id="node5" class="node">
<title>Node5</title>
<g id="a_node5"><a xlink:href="classCompiler.html#a6990c4cd92935d8eaa7c59926004440d" target="_top" xlink:title="Оболочка для вызова метода Source::makeAST()">
<polygon fill="white" stroke="black" points="84,-190.5 84,-209.5 188,-209.5 188,-190.5 84,-190.5"/>
<text text-anchor="middle" x="136" y="-197.5" font-family="Helvetica,sans-Serif" font-size="10.00">Compiler::makeAST</text>
</a>
</g>
</g>
<!-- Node1&#45;&gt;Node5 -->
<g id="edge4" class="edge">
<title>Node1&#45;&gt;Node5</title>
<path fill="none" stroke="midnightblue" d="M38.44,-168.67C48.85,-172.39 62.11,-177.06 74,-181 80.44,-183.13 87.28,-185.33 93.97,-187.44"/>
<polygon fill="midnightblue" stroke="midnightblue" points="93,-190.81 103.58,-190.45 95.09,-184.13 93,-190.81"/>
</g>
<!-- Node6 -->
<g id="node6" class="node">
<title>Node6</title>
<g id="a_node6"><a xlink:href="classCompiler.html#ae397f04247f8297fbc1c847a747571d7" target="_top" xlink:title="Проверка режима работы компилятора">
<polygon fill="white" stroke="black" points="93,-152.5 93,-171.5 179,-171.5 179,-152.5 93,-152.5"/>
<text text-anchor="middle" x="136" y="-159.5" font-family="Helvetica,sans-Serif" font-size="10.00">Compiler::mode</text>
</a>
</g>
</g>
<!-- Node1&#45;&gt;Node6 -->
<g id="edge5" class="edge">
<title>Node1&#45;&gt;Node6</title>
<path fill="none" stroke="midnightblue" d="M38.22,-162C50.17,-162 66.46,-162 82.26,-162"/>
<polygon fill="midnightblue" stroke="midnightblue" points="82.52,-165.5 92.52,-162 82.52,-158.5 82.52,-165.5"/>
</g>
<!-- Node7 -->
<g id="node7" class="node">
<title>Node7</title>
<g id="a_node7"><a xlink:href="classCompiler.html#a6927dbdf123c014426df45b5f2d9d034" target="_top" xlink:title="Оболочка для вызова метода Source::open()">
<polygon fill="white" stroke="black" points="80.5,-114.5 80.5,-133.5 191.5,-133.5 191.5,-114.5 80.5,-114.5"/>
<text text-anchor="middle" x="136" y="-121.5" font-family="Helvetica,sans-Serif" font-size="10.00">Compiler::readSource</text>
</a>
</g>
</g>
<!-- Node1&#45;&gt;Node7 -->
<g id="edge6" class="edge">
<title>Node1&#45;&gt;Node7</title>
<path fill="none" stroke="midnightblue" d="M38.44,-155.33C48.85,-151.61 62.11,-146.94 74,-143 80.44,-140.87 87.28,-138.67 93.97,-136.56"/>
<polygon fill="midnightblue" stroke="midnightblue" points="95.09,-139.87 103.58,-133.55 93,-133.19 95.09,-139.87"/>
</g>
<!-- Node8 -->
<g id="node8" class="node">
<title>Node8</title>
<g id="a_node8"><a xlink:href="classCompiler.html#a412d44764d0286257248c6d61d2fc05c" target="_top" xlink:title="Показ страницы помощи">
<polygon fill="white" stroke="black" points="83.5,-76.5 83.5,-95.5 188.5,-95.5 188.5,-76.5 83.5,-76.5"/>
<text text-anchor="middle" x="136" y="-83.5" font-family="Helvetica,sans-Serif" font-size="10.00">Compiler::showHelp</text>
</a>
</g>
</g>
<!-- Node1&#45;&gt;Node8 -->
<g id="edge7" class="edge">
<title>Node1&#45;&gt;Node8</title>
<path fill="none" stroke="midnightblue" d="M26.56,-152.5C35.75,-139.87 53.64,-117.69 74,-105 77.35,-102.92 80.94,-101.04 84.65,-99.36"/>
<polygon fill="midnightblue" stroke="midnightblue" points="86.06,-102.57 94.02,-95.58 83.44,-96.08 86.06,-102.57"/>
</g>
<!-- Node9 -->
<g id="node9" class="node">
<title>Node9</title>
<g id="a_node9"><a xlink:href="classCompiler.html#a26f35099c0f75a6ef4143d4a5869a1de" target="_top" xlink:title="Показ настроек компилятора">
<polygon fill="white" stroke="black" points="75.5,-38.5 75.5,-57.5 196.5,-57.5 196.5,-38.5 75.5,-38.5"/>
<text text-anchor="middle" x="136" y="-45.5" font-family="Helvetica,sans-Serif" font-size="10.00">Compiler::showSettings</text>
</a>
</g>
</g>
<!-- Node1&#45;&gt;Node9 -->
<g id="edge8" class="edge">
<title>Node1&#45;&gt;Node9</title>
<path fill="none" stroke="midnightblue" d="M22.83,-152.34C28.94,-133.18 45.19,-90.2 74,-67 76.27,-65.17 78.71,-63.52 81.27,-62.03"/>
<polygon fill="midnightblue" stroke="midnightblue" points="82.93,-65.11 90.34,-57.54 79.82,-58.84 82.93,-65.11"/>
</g>
<!-- Node10 -->
<g id="node10" class="node">
<title>Node10</title>
<g id="a_node10"><a xlink:href="classCompiler.html#a9f68e8c12daa7c9f6480092035189d80" target="_top" xlink:title="Показ всех считанных исходных кодов">
<polygon fill="white" stroke="black" points="78,-0.5 78,-19.5 194,-19.5 194,-0.5 78,-0.5"/>
<text text-anchor="middle" x="136" y="-7.5" font-family="Helvetica,sans-Serif" font-size="10.00">Compiler::showSource</text>
</a>
</g>
</g>
<!-- Node1&#45;&gt;Node10 -->
<g id="edge9" class="edge">
<title>Node1&#45;&gt;Node10</title>
<path fill="none" stroke="midnightblue" d="M21.1,-152.38C24.39,-128.06 36.4,-63.58 74,-29 75.72,-27.41 77.58,-25.96 79.53,-24.63"/>
<polygon fill="midnightblue" stroke="midnightblue" points="81.61,-27.48 88.62,-19.53 78.18,-21.37 81.61,-27.48"/>
</g>
</g>
</svg>
