<?xml version="1.0" encoding="UTF-8" standalone="no"?>
<!DOCTYPE svg PUBLIC "-//W3C//DTD SVG 1.1//EN"
 "http://www.w3.org/Graphics/SVG/1.1/DTD/svg11.dtd">
<!-- Generated by graphviz version 2.43.0 (0)
 -->
<!-- Title: jc.cpp Pages: 1 -->
<svg width="454pt" height="308pt"
 viewBox="0.00 0.00 454.00 308.00" xmlns="http://www.w3.org/2000/svg" xmlns:xlink="http://www.w3.org/1999/xlink">
<g id="graph0" class="graph" transform="scale(1 1) rotate(0) translate(4 304)">
<title>jc.cpp</title>
<polygon fill="white" stroke="transparent" points="-4,4 -4,-304 450,-304 450,4 -4,4"/>
<!-- Node1 -->
<g id="node1" class="node">
<title>Node1</title>
<g id="a_node1"><a xlink:title="Основной файл компилятора">
<polygon fill="#bfbfbf" stroke="black" points="120.5,-280.5 120.5,-299.5 163.5,-299.5 163.5,-280.5 120.5,-280.5"/>
<text text-anchor="middle" x="142" y="-287.5" font-family="Helvetica,sans-Serif" font-size="10.00">jc.cpp</text>
</a>
</g>
</g>
<!-- Node2 -->
<g id="node2" class="node">
<title>Node2</title>
<g id="a_node2"><a xlink:title=" ">
<polygon fill="white" stroke="#bfbfbf" points="131,-0.5 131,-19.5 181,-19.5 181,-0.5 131,-0.5"/>
<text text-anchor="middle" x="156" y="-7.5" font-family="Helvetica,sans-Serif" font-size="10.00">fstream</text>
</a>
</g>
</g>
<!-- Node1&#45;&gt;Node2 -->
<g id="edge1" class="edge">
<title>Node1&#45;&gt;Node2</title>
<path fill="none" stroke="midnightblue" d="M120.39,-282.88C101.07,-276.32 73.36,-264.06 57,-244 37.98,-220.68 38,-209.1 38,-179 38,-179 38,-179 38,-121 38,-73.51 89.77,-40.67 124.72,-23.91"/>
<polygon fill="midnightblue" stroke="midnightblue" points="126.46,-26.97 134.08,-19.61 123.53,-20.61 126.46,-26.97"/>
</g>
<!-- Node3 -->
<g id="node3" class="node">
<title>Node3</title>
<g id="a_node3"><a xlink:title=" ">
<polygon fill="white" stroke="#bfbfbf" points="49,-0.5 49,-19.5 103,-19.5 103,-0.5 49,-0.5"/>
<text text-anchor="middle" x="76" y="-7.5" font-family="Helvetica,sans-Serif" font-size="10.00">iostream</text>
</a>
</g>
</g>
<!-- Node1&#45;&gt;Node3 -->
<g id="edge2" class="edge">
<title>Node1&#45;&gt;Node3</title>
<path fill="none" stroke="midnightblue" d="M120.43,-283.23C80.71,-271.14 0,-239.19 0,-179 0,-179 0,-179 0,-121 0,-81.28 33.96,-45.5 56.48,-26.15"/>
<polygon fill="midnightblue" stroke="midnightblue" points="58.98,-28.63 64.46,-19.57 54.52,-23.24 58.98,-28.63"/>
</g>
<!-- Node4 -->
<g id="node4" class="node">
<title>Node4</title>
<g id="a_node4"><a xlink:title=" ">
<polygon fill="white" stroke="#bfbfbf" points="66.5,-224.5 66.5,-243.5 117.5,-243.5 117.5,-224.5 66.5,-224.5"/>
<text text-anchor="middle" x="92" y="-231.5" font-family="Helvetica,sans-Serif" font-size="10.00">unistd.h</text>
</a>
</g>
</g>
<!-- Node1&#45;&gt;Node4 -->
<g id="edge3" class="edge">
<title>Node1&#45;&gt;Node4</title>
<path fill="none" stroke="midnightblue" d="M133.74,-280.08C126.54,-272.3 115.89,-260.8 107.15,-251.37"/>
<polygon fill="midnightblue" stroke="midnightblue" points="109.47,-248.71 100.1,-243.75 104.33,-253.47 109.47,-248.71"/>
</g>
<!-- Node5 -->
<g id="node5" class="node">
<title>Node5</title>
<g id="a_node5"><a xlink:title=" ">
<polygon fill="white" stroke="#bfbfbf" points="309,-0.5 309,-19.5 355,-19.5 355,-0.5 309,-0.5"/>
<text text-anchor="middle" x="332" y="-7.5" font-family="Helvetica,sans-Serif" font-size="10.00">cstring</text>
</a>
</g>
</g>
<!-- Node1&#45;&gt;Node5 -->
<g id="edge4" class="edge">
<title>Node1&#45;&gt;Node5</title>
<path fill="none" stroke="midnightblue" d="M163.75,-287.25C218.17,-282.56 358.67,-268.35 398,-244 428.53,-225.1 446,-214.91 446,-179 446,-179 446,-179 446,-121 446,-74.11 395.45,-40.89 361.67,-23.93"/>
<polygon fill="midnightblue" stroke="midnightblue" points="363.17,-20.77 352.64,-19.58 360.13,-27.07 363.17,-20.77"/>
</g>
<!-- Node6 -->
<g id="node6" class="node">
<title>Node6</title>
<g id="a_node6"><a xlink:href="compiler_8hpp.html" target="_top" xlink:title="Заголовочный файл с описанием класса компилятора">
<polygon fill="white" stroke="black" points="135.5,-224.5 135.5,-243.5 248.5,-243.5 248.5,-224.5 135.5,-224.5"/>
<text text-anchor="middle" x="192" y="-231.5" font-family="Helvetica,sans-Serif" font-size="10.00">Headers/compiler.hpp</text>
</a>
</g>
</g>
<!-- Node1&#45;&gt;Node6 -->
<g id="edge5" class="edge">
<title>Node1&#45;&gt;Node6</title>
<path fill="none" stroke="midnightblue" d="M150.26,-280.08C157.46,-272.3 168.11,-260.8 176.85,-251.37"/>
<polygon fill="midnightblue" stroke="midnightblue" points="179.67,-253.47 183.9,-243.75 174.53,-248.71 179.67,-253.47"/>
</g>
<!-- Node9 -->
<g id="node9" class="node">
<title>Node9</title>
<g id="a_node9"><a xlink:href="debug_8hpp_source.html" target="_top" xlink:title=" ">
<polygon fill="white" stroke="black" points="225,-0.5 225,-19.5 287,-19.5 287,-0.5 225,-0.5"/>
<text text-anchor="middle" x="256" y="-7.5" font-family="Helvetica,sans-Serif" font-size="10.00">debug.hpp</text>
</a>
</g>
</g>
<!-- Node1&#45;&gt;Node9 -->
<g id="edge22" class="edge">
<title>Node1&#45;&gt;Node9</title>
<path fill="none" stroke="midnightblue" d="M163.77,-289.77C227.3,-290.8 408,-284.44 408,-179 408,-179 408,-179 408,-121 408,-66.03 341.96,-35.74 296.94,-21.47"/>
<polygon fill="midnightblue" stroke="midnightblue" points="297.71,-18.05 287.13,-18.5 295.69,-24.75 297.71,-18.05"/>
</g>
<!-- Node6&#45;&gt;Node2 -->
<g id="edge7" class="edge">
<title>Node6&#45;&gt;Node2</title>
<path fill="none" stroke="midnightblue" d="M177.7,-224.23C166.17,-216.32 150.67,-203.54 143,-188 116.96,-135.24 119.23,-113.2 133,-56 135.31,-46.42 140.02,-36.58 144.58,-28.56"/>
<polygon fill="midnightblue" stroke="midnightblue" points="147.69,-30.17 149.9,-19.81 141.71,-26.54 147.69,-30.17"/>
</g>
<!-- Node6&#45;&gt;Node3 -->
<g id="edge8" class="edge">
<title>Node6&#45;&gt;Node3</title>
<path fill="none" stroke="midnightblue" d="M174.89,-224.36C161.17,-216.6 142.37,-203.98 131,-188 95.31,-137.82 82.24,-63.75 77.92,-29.55"/>
<polygon fill="midnightblue" stroke="midnightblue" points="81.39,-29.11 76.77,-19.58 74.44,-29.91 81.39,-29.11"/>
</g>
<!-- Node6&#45;&gt;Node5 -->
<g id="edge6" class="edge">
<title>Node6&#45;&gt;Node5</title>
<path fill="none" stroke="midnightblue" d="M205.12,-224.39C235.51,-203.47 309.58,-146.45 329,-76 333.18,-60.84 333.7,-42.94 333.31,-29.77"/>
<polygon fill="midnightblue" stroke="midnightblue" points="336.79,-29.41 332.79,-19.6 329.8,-29.77 336.79,-29.41"/>
</g>
<!-- Node7 -->
<g id="node7" class="node">
<title>Node7</title>
<g id="a_node7"><a xlink:href="source_8hpp.html" target="_top" xlink:title="Описание класса исходного кода">
<polygon fill="white" stroke="black" points="202.5,-112.5 202.5,-131.5 267.5,-131.5 267.5,-112.5 202.5,-112.5"/>
<text text-anchor="middle" x="235" y="-119.5" font-family="Helvetica,sans-Serif" font-size="10.00">source.hpp</text>
</a>
</g>
</g>
<!-- Node6&#45;&gt;Node7 -->
<g id="edge9" class="edge">
<title>Node6&#45;&gt;Node7</title>
<path fill="none" stroke="midnightblue" d="M199.63,-224.35C206.8,-215.74 217.26,-201.85 223,-188 229.12,-173.24 232.13,-155.31 233.61,-142.02"/>
<polygon fill="midnightblue" stroke="midnightblue" points="237.12,-142.02 234.55,-131.74 230.15,-141.38 237.12,-142.02"/>
</g>
<!-- Node10 -->
<g id="node10" class="node">
<title>Node10</title>
<g id="a_node10"><a xlink:href="binary_8hpp.html" target="_top" xlink:title="Описание класса бинарного кода">
<polygon fill="white" stroke="black" points="152,-168.5 152,-187.5 214,-187.5 214,-168.5 152,-168.5"/>
<text text-anchor="middle" x="183" y="-175.5" font-family="Helvetica,sans-Serif" font-size="10.00">binary.hpp</text>
</a>
</g>
</g>
<!-- Node6&#45;&gt;Node10 -->
<g id="edge18" class="edge">
<title>Node6&#45;&gt;Node10</title>
<path fill="none" stroke="midnightblue" d="M190.51,-224.08C189.32,-216.93 187.61,-206.64 186.12,-197.69"/>
<polygon fill="midnightblue" stroke="midnightblue" points="189.55,-197.04 184.46,-187.75 182.65,-198.19 189.55,-197.04"/>
</g>
<!-- Node7&#45;&gt;Node2 -->
<g id="edge11" class="edge">
<title>Node7&#45;&gt;Node2</title>
<path fill="none" stroke="midnightblue" d="M231,-112.16C224.97,-99.24 212.76,-74.7 199,-56 191.33,-45.58 181.43,-35.06 173.06,-26.82"/>
<polygon fill="midnightblue" stroke="midnightblue" points="175.27,-24.09 165.63,-19.69 170.43,-29.14 175.27,-24.09"/>
</g>
<!-- Node7&#45;&gt;Node5 -->
<g id="edge10" class="edge">
<title>Node7&#45;&gt;Node5</title>
<path fill="none" stroke="midnightblue" d="M242.61,-112.37C258.76,-94.05 296.68,-51.05 317.57,-27.36"/>
<polygon fill="midnightblue" stroke="midnightblue" points="320.44,-29.41 324.42,-19.59 315.18,-24.78 320.44,-29.41"/>
</g>
<!-- Node8 -->
<g id="node8" class="node">
<title>Node8</title>
<g id="a_node8"><a xlink:href="ast_8hpp.html" target="_top" xlink:title="Описание класса абстрактного синтаксического дерева">
<polygon fill="white" stroke="black" points="142,-56.5 142,-75.5 190,-75.5 190,-56.5 142,-56.5"/>
<text text-anchor="middle" x="166" y="-63.5" font-family="Helvetica,sans-Serif" font-size="10.00">ast.hpp</text>
</a>
</g>
</g>
<!-- Node7&#45;&gt;Node8 -->
<g id="edge12" class="edge">
<title>Node7&#45;&gt;Node8</title>
<path fill="none" stroke="midnightblue" d="M223.91,-112.32C213.51,-104.18 197.74,-91.84 185.28,-82.09"/>
<polygon fill="midnightblue" stroke="midnightblue" points="187.32,-79.24 177.29,-75.83 183.01,-84.75 187.32,-79.24"/>
</g>
<!-- Node7&#45;&gt;Node9 -->
<g id="edge17" class="edge">
<title>Node7&#45;&gt;Node9</title>
<path fill="none" stroke="midnightblue" d="M236.65,-112.37C240.04,-94.62 247.85,-53.67 252.45,-29.6"/>
<polygon fill="midnightblue" stroke="midnightblue" points="255.92,-30.07 254.36,-19.59 249.05,-28.76 255.92,-30.07"/>
</g>
<!-- Node8&#45;&gt;Node2 -->
<g id="edge13" class="edge">
<title>Node8&#45;&gt;Node2</title>
<path fill="none" stroke="midnightblue" d="M164.35,-56.08C163.02,-48.93 161.12,-38.64 159.46,-29.69"/>
<polygon fill="midnightblue" stroke="midnightblue" points="162.88,-28.95 157.62,-19.75 156,-30.22 162.88,-28.95"/>
</g>
<!-- Node8&#45;&gt;Node3 -->
<g id="edge14" class="edge">
<title>Node8&#45;&gt;Node3</title>
<path fill="none" stroke="midnightblue" d="M151.54,-56.32C137.5,-47.9 115.95,-34.97 99.46,-25.07"/>
<polygon fill="midnightblue" stroke="midnightblue" points="100.8,-21.8 90.42,-19.65 97.2,-27.8 100.8,-21.8"/>
</g>
<!-- Node8&#45;&gt;Node5 -->
<g id="edge15" class="edge">
<title>Node8&#45;&gt;Node5</title>
<path fill="none" stroke="midnightblue" d="M190.14,-57.15C218.86,-47.8 266.96,-32.16 299.08,-21.71"/>
<polygon fill="midnightblue" stroke="midnightblue" points="300.48,-24.94 308.9,-18.51 298.31,-18.28 300.48,-24.94"/>
</g>
<!-- Node8&#45;&gt;Node9 -->
<g id="edge16" class="edge">
<title>Node8&#45;&gt;Node9</title>
<path fill="none" stroke="midnightblue" d="M180.46,-56.32C194.5,-47.9 216.05,-34.97 232.54,-25.07"/>
<polygon fill="midnightblue" stroke="midnightblue" points="234.8,-27.8 241.58,-19.65 231.2,-21.8 234.8,-27.8"/>
</g>
<!-- Node10&#45;&gt;Node5 -->
<g id="edge19" class="edge">
<title>Node10&#45;&gt;Node5</title>
<path fill="none" stroke="midnightblue" d="M213.36,-168.5C233.57,-161.51 259.52,-149.83 277,-132 305.71,-102.72 321.06,-55.78 327.77,-29.82"/>
<polygon fill="midnightblue" stroke="midnightblue" points="331.24,-30.33 330.19,-19.79 324.44,-28.69 331.24,-30.33"/>
</g>
<!-- Node10&#45;&gt;Node7 -->
<g id="edge21" class="edge">
<title>Node10&#45;&gt;Node7</title>
<path fill="none" stroke="midnightblue" d="M191.59,-168.08C199.16,-160.22 210.38,-148.57 219.51,-139.08"/>
<polygon fill="midnightblue" stroke="midnightblue" points="222.16,-141.38 226.57,-131.75 217.12,-136.53 222.16,-141.38"/>
</g>
<!-- Node10&#45;&gt;Node8 -->
<g id="edge20" class="edge">
<title>Node10&#45;&gt;Node8</title>
<path fill="none" stroke="midnightblue" d="M181.67,-168.37C178.92,-150.62 172.59,-109.67 168.87,-85.6"/>
<polygon fill="midnightblue" stroke="midnightblue" points="172.31,-84.94 167.33,-75.59 165.4,-86.01 172.31,-84.94"/>
</g>
</g>
</svg>
