<?xml version="1.0" encoding="UTF-8" standalone="no"?>
<!DOCTYPE svg PUBLIC "-//W3C//DTD SVG 1.1//EN"
 "http://www.w3.org/Graphics/SVG/1.1/DTD/svg11.dtd">
<!-- Generated by graphviz version 2.43.0 (0)
 -->
<!-- Title: Headers/source.hpp Pages: 1 -->
<svg width="274pt" height="140pt"
 viewBox="0.00 0.00 274.00 140.00" xmlns="http://www.w3.org/2000/svg" xmlns:xlink="http://www.w3.org/1999/xlink">
<g id="graph0" class="graph" transform="scale(1 1) rotate(0) translate(4 136)">
<title>Headers/source.hpp</title>
<polygon fill="white" stroke="transparent" points="-4,4 -4,-136 270,-136 270,4 -4,4"/>
<!-- Node1 -->
<g id="node1" class="node">
<title>Node1</title>
<g id="a_node1"><a xlink:title="Описание класса исходного кода">
<polygon fill="#bfbfbf" stroke="black" points="62.5,-112.5 62.5,-131.5 167.5,-131.5 167.5,-112.5 62.5,-112.5"/>
<text text-anchor="middle" x="115" y="-119.5" font-family="Helvetica,sans-Serif" font-size="10.00">Headers/source.hpp</text>
</a>
</g>
</g>
<!-- Node2 -->
<g id="node2" class="node">
<title>Node2</title>
<g id="a_node2"><a xlink:title=" ">
<polygon fill="white" stroke="#bfbfbf" points="0,-0.5 0,-19.5 46,-19.5 46,-0.5 0,-0.5"/>
<text text-anchor="middle" x="23" y="-7.5" font-family="Helvetica,sans-Serif" font-size="10.00">cstring</text>
</a>
</g>
</g>
<!-- Node1&#45;&gt;Node2 -->
<g id="edge1" class="edge">
<title>Node1&#45;&gt;Node2</title>
<path fill="none" stroke="midnightblue" d="M107.78,-112.37C92.46,-94.05 56.5,-51.05 36.68,-27.36"/>
<polygon fill="midnightblue" stroke="midnightblue" points="39.29,-25.02 30.19,-19.59 33.92,-29.51 39.29,-25.02"/>
</g>
<!-- Node3 -->
<g id="node3" class="node">
<title>Node3</title>
<g id="a_node3"><a xlink:title=" ">
<polygon fill="white" stroke="#bfbfbf" points="64,-0.5 64,-19.5 114,-19.5 114,-0.5 64,-0.5"/>
<text text-anchor="middle" x="89" y="-7.5" font-family="Helvetica,sans-Serif" font-size="10.00">fstream</text>
</a>
</g>
</g>
<!-- Node1&#45;&gt;Node3 -->
<g id="edge2" class="edge">
<title>Node1&#45;&gt;Node3</title>
<path fill="none" stroke="midnightblue" d="M112.96,-112.37C108.76,-94.62 99.08,-53.67 93.4,-29.6"/>
<polygon fill="midnightblue" stroke="midnightblue" points="96.74,-28.52 91.03,-19.59 89.92,-30.13 96.74,-28.52"/>
</g>
<!-- Node4 -->
<g id="node4" class="node">
<title>Node4</title>
<g id="a_node4"><a xlink:href="ast_8hpp.html" target="_top" xlink:title="Описание класса абстрактного синтаксического дерева">
<polygon fill="white" stroke="black" points="117,-56.5 117,-75.5 165,-75.5 165,-56.5 117,-56.5"/>
<text text-anchor="middle" x="141" y="-63.5" font-family="Helvetica,sans-Serif" font-size="10.00">ast.hpp</text>
</a>
</g>
</g>
<!-- Node1&#45;&gt;Node4 -->
<g id="edge3" class="edge">
<title>Node1&#45;&gt;Node4</title>
<path fill="none" stroke="midnightblue" d="M119.29,-112.08C122.85,-104.69 128.02,-93.95 132.42,-84.81"/>
<polygon fill="midnightblue" stroke="midnightblue" points="135.6,-86.28 136.79,-75.75 129.29,-83.24 135.6,-86.28"/>
</g>
<!-- Node6 -->
<g id="node6" class="node">
<title>Node6</title>
<g id="a_node6"><a xlink:href="debug_8hpp_source.html" target="_top" xlink:title=" ">
<polygon fill="white" stroke="black" points="204,-0.5 204,-19.5 266,-19.5 266,-0.5 204,-0.5"/>
<text text-anchor="middle" x="235" y="-7.5" font-family="Helvetica,sans-Serif" font-size="10.00">debug.hpp</text>
</a>
</g>
</g>
<!-- Node1&#45;&gt;Node6 -->
<g id="edge8" class="edge">
<title>Node1&#45;&gt;Node6</title>
<path fill="none" stroke="midnightblue" d="M127.68,-112.26C139.96,-103.58 158.89,-89.64 174,-76 191.12,-60.54 208.99,-41.05 220.92,-27.46"/>
<polygon fill="midnightblue" stroke="midnightblue" points="223.62,-29.69 227.53,-19.85 218.33,-25.11 223.62,-29.69"/>
</g>
<!-- Node4&#45;&gt;Node2 -->
<g id="edge6" class="edge">
<title>Node4&#45;&gt;Node2</title>
<path fill="none" stroke="midnightblue" d="M122.3,-56.44C103.06,-47.64 72.85,-33.81 50.8,-23.72"/>
<polygon fill="midnightblue" stroke="midnightblue" points="52.16,-20.5 41.61,-19.52 49.25,-26.86 52.16,-20.5"/>
</g>
<!-- Node4&#45;&gt;Node3 -->
<g id="edge4" class="edge">
<title>Node4&#45;&gt;Node3</title>
<path fill="none" stroke="midnightblue" d="M132.41,-56.08C124.84,-48.22 113.62,-36.57 104.49,-27.08"/>
<polygon fill="midnightblue" stroke="midnightblue" points="106.88,-24.53 97.43,-19.75 101.84,-29.38 106.88,-24.53"/>
</g>
<!-- Node5 -->
<g id="node5" class="node">
<title>Node5</title>
<g id="a_node5"><a xlink:title=" ">
<polygon fill="white" stroke="#bfbfbf" points="132,-0.5 132,-19.5 186,-19.5 186,-0.5 132,-0.5"/>
<text text-anchor="middle" x="159" y="-7.5" font-family="Helvetica,sans-Serif" font-size="10.00">iostream</text>
</a>
</g>
</g>
<!-- Node4&#45;&gt;Node5 -->
<g id="edge5" class="edge">
<title>Node4&#45;&gt;Node5</title>
<path fill="none" stroke="midnightblue" d="M143.97,-56.08C146.38,-48.85 149.86,-38.41 152.87,-29.4"/>
<polygon fill="midnightblue" stroke="midnightblue" points="156.24,-30.34 156.08,-19.75 149.6,-28.13 156.24,-30.34"/>
</g>
<!-- Node4&#45;&gt;Node6 -->
<g id="edge7" class="edge">
<title>Node4&#45;&gt;Node6</title>
<path fill="none" stroke="midnightblue" d="M156.1,-56.32C170.9,-47.82 193.69,-34.73 210.98,-24.8"/>
<polygon fill="midnightblue" stroke="midnightblue" points="213.01,-27.67 219.93,-19.65 209.52,-21.6 213.01,-27.67"/>
</g>
</g>
</svg>
