<?xml version="1.0" encoding="UTF-8" standalone="no"?>
<!DOCTYPE svg PUBLIC "-//W3C//DTD SVG 1.1//EN"
 "http://www.w3.org/Graphics/SVG/1.1/DTD/svg11.dtd">
<!-- Generated by graphviz version 2.43.0 (0)
 -->
<!-- Title: Headers/source.hpp Pages: 1 -->
<svg width="322pt" height="196pt"
 viewBox="0.00 0.00 321.50 196.00" xmlns="http://www.w3.org/2000/svg" xmlns:xlink="http://www.w3.org/1999/xlink">
<g id="graph0" class="graph" transform="scale(1 1) rotate(0) translate(4 192)">
<title>Headers/source.hpp</title>
<polygon fill="white" stroke="transparent" points="-4,4 -4,-192 317.5,-192 317.5,4 -4,4"/>
<!-- Node1 -->
<g id="node1" class="node">
<title>Node1</title>
<g id="a_node1"><a xlink:title="Описание класса исходного кода">
<polygon fill="#bfbfbf" stroke="black" points="94,-168.5 94,-187.5 199,-187.5 199,-168.5 94,-168.5"/>
<text text-anchor="middle" x="146.5" y="-175.5" font-family="Helvetica,sans-Serif" font-size="10.00">Headers/source.hpp</text>
</a>
</g>
</g>
<!-- Node2 -->
<g id="node2" class="node">
<title>Node2</title>
<g id="a_node2"><a xlink:href="binary_8hpp.html" target="_top" xlink:title="Описание класса бинарного кода">
<polygon fill="white" stroke="black" points="95.5,-112.5 95.5,-131.5 197.5,-131.5 197.5,-112.5 95.5,-112.5"/>
<text text-anchor="middle" x="146.5" y="-119.5" font-family="Helvetica,sans-Serif" font-size="10.00">Headers/binary.hpp</text>
</a>
</g>
</g>
<!-- Node1&#45;&gt;Node2 -->
<g id="edge1" class="edge">
<title>Node1&#45;&gt;Node2</title>
<path fill="none" stroke="midnightblue" d="M146.5,-157.8C146.5,-148.91 146.5,-138.78 146.5,-131.75"/>
<polygon fill="midnightblue" stroke="midnightblue" points="143,-158.08 146.5,-168.08 150,-158.08 143,-158.08"/>
</g>
<!-- Node3 -->
<g id="node3" class="node">
<title>Node3</title>
<g id="a_node3"><a xlink:href="compiler_8hpp.html" target="_top" xlink:title="Заголовочный файл с описанием класса компилятора">
<polygon fill="white" stroke="black" points="11,-56.5 11,-75.5 124,-75.5 124,-56.5 11,-56.5"/>
<text text-anchor="middle" x="67.5" y="-63.5" font-family="Helvetica,sans-Serif" font-size="10.00">Headers/compiler.hpp</text>
</a>
</g>
</g>
<!-- Node1&#45;&gt;Node3 -->
<g id="edge6" class="edge">
<title>Node1&#45;&gt;Node3</title>
<path fill="none" stroke="midnightblue" d="M120.84,-163.02C108.85,-155.31 95.3,-144.71 86.5,-132 74.32,-114.41 69.85,-88.98 68.29,-75.74"/>
<polygon fill="midnightblue" stroke="midnightblue" points="119.24,-166.15 129.61,-168.35 122.88,-160.16 119.24,-166.15"/>
</g>
<!-- Node7 -->
<g id="node7" class="node">
<title>Node7</title>
<g id="a_node7"><a xlink:href="source_8cpp.html" target="_top" xlink:title="Исполняемый код класса Source.">
<polygon fill="white" stroke="black" points="215.5,-112.5 215.5,-131.5 313.5,-131.5 313.5,-112.5 215.5,-112.5"/>
<text text-anchor="middle" x="264.5" y="-119.5" font-family="Helvetica,sans-Serif" font-size="10.00">Source/source.cpp</text>
</a>
</g>
</g>
<!-- Node1&#45;&gt;Node7 -->
<g id="edge7" class="edge">
<title>Node1&#45;&gt;Node7</title>
<path fill="none" stroke="midnightblue" d="M174.4,-164.23C196.47,-154.13 226.68,-140.31 245.89,-131.52"/>
<polygon fill="midnightblue" stroke="midnightblue" points="172.83,-161.1 165.2,-168.44 175.75,-167.46 172.83,-161.1"/>
</g>
<!-- Node2&#45;&gt;Node3 -->
<g id="edge2" class="edge">
<title>Node2&#45;&gt;Node3</title>
<path fill="none" stroke="midnightblue" d="M125.47,-106.62C111.03,-96.76 92.36,-83.99 80.16,-75.65"/>
<polygon fill="midnightblue" stroke="midnightblue" points="123.58,-109.57 133.81,-112.32 127.53,-103.79 123.58,-109.57"/>
</g>
<!-- Node6 -->
<g id="node6" class="node">
<title>Node6</title>
<g id="a_node6"><a xlink:href="binary_8cpp.html" target="_top" xlink:title="Исполняемый код класса Binary и вложенных классов">
<polygon fill="white" stroke="black" points="142,-56.5 142,-75.5 237,-75.5 237,-56.5 142,-56.5"/>
<text text-anchor="middle" x="189.5" y="-63.5" font-family="Helvetica,sans-Serif" font-size="10.00">Source/binary.cpp</text>
</a>
</g>
</g>
<!-- Node2&#45;&gt;Node6 -->
<g id="edge5" class="edge">
<title>Node2&#45;&gt;Node6</title>
<path fill="none" stroke="midnightblue" d="M159.92,-104.14C167.41,-94.74 176.44,-83.4 182.53,-75.75"/>
<polygon fill="midnightblue" stroke="midnightblue" points="157.09,-102.08 153.6,-112.08 162.57,-106.44 157.09,-102.08"/>
</g>
<!-- Node4 -->
<g id="node4" class="node">
<title>Node4</title>
<g id="a_node4"><a xlink:href="jc_8cpp.html" target="_top" xlink:title="Основной файл компилятора">
<polygon fill="white" stroke="black" points="0,-0.5 0,-19.5 43,-19.5 43,-0.5 0,-0.5"/>
<text text-anchor="middle" x="21.5" y="-7.5" font-family="Helvetica,sans-Serif" font-size="10.00">jc.cpp</text>
</a>
</g>
</g>
<!-- Node3&#45;&gt;Node4 -->
<g id="edge3" class="edge">
<title>Node3&#45;&gt;Node4</title>
<path fill="none" stroke="midnightblue" d="M53.39,-48.43C45.32,-38.97 35.54,-27.48 28.95,-19.75"/>
<polygon fill="midnightblue" stroke="midnightblue" points="50.75,-50.74 59.9,-56.08 56.08,-46.2 50.75,-50.74"/>
</g>
<!-- Node5 -->
<g id="node5" class="node">
<title>Node5</title>
<g id="a_node5"><a xlink:href="compiler_8cpp.html" target="_top" xlink:title="Файл с исполняемым кодом класса Compiler.">
<polygon fill="white" stroke="black" points="61.5,-0.5 61.5,-19.5 167.5,-19.5 167.5,-0.5 61.5,-0.5"/>
<text text-anchor="middle" x="114.5" y="-7.5" font-family="Helvetica,sans-Serif" font-size="10.00">Source/compiler.cpp</text>
</a>
</g>
</g>
<!-- Node3&#45;&gt;Node5 -->
<g id="edge4" class="edge">
<title>Node3&#45;&gt;Node5</title>
<path fill="none" stroke="midnightblue" d="M81.92,-48.43C90.16,-38.97 100.15,-27.48 106.88,-19.75"/>
<polygon fill="midnightblue" stroke="midnightblue" points="79.19,-46.24 75.26,-56.08 84.47,-50.84 79.19,-46.24"/>
</g>
</g>
</svg>
